<svg width="139" height="49" viewBox="0 0 139 49" fill="none" xmlns="http://www.w3.org/2000/svg">
<rect width="139" height="49" rx="7.11889" fill="#001B2C"/>
<path d="M27.0505 14C27.0973 14 27.144 14 27.1934 14C27.308 15.4162 26.7675 16.4744 26.1105 17.2408C25.4659 18.0018 24.5831 18.7399 23.1554 18.6279C23.0602 17.2319 23.6017 16.2522 24.2577 15.4877C24.8662 14.7751 25.9817 14.1411 27.0505 14Z" fill="white"/>
<path d="M31.3722 28.7407C31.3722 28.7549 31.3722 28.7672 31.3722 28.7804C30.971 29.9956 30.3987 31.0371 29.7003 32.0036C29.0627 32.881 28.2814 34.0618 26.8863 34.0618C25.6808 34.0618 24.8801 33.2866 23.6447 33.2655C22.3378 33.2443 21.6191 33.9136 20.4242 34.082C20.2875 34.082 20.1508 34.082 20.0168 34.082C19.1394 33.9551 18.4312 33.2602 17.9154 32.6341C16.3942 30.784 15.2187 28.3942 15 25.336C15 25.0361 15 24.7372 15 24.4374C15.0926 22.2486 16.1561 20.4691 17.5697 19.6066C18.3157 19.1481 19.3413 18.7574 20.4833 18.932C20.9727 19.0079 21.4727 19.1754 21.911 19.3412C22.3263 19.5008 22.8457 19.7839 23.3378 19.7689C23.6711 19.7592 24.0027 19.5855 24.3387 19.4629C25.3228 19.1075 26.2876 18.7001 27.5592 18.8915C29.0874 19.1225 30.1721 19.8015 30.8423 20.8492C29.5495 21.6719 28.5274 22.9118 28.702 25.0291C28.8572 26.9524 29.9754 28.0776 31.3722 28.7407Z" fill="white"/>
<path d="M45.94 13.03C46.7 13.03 47.3567 13.1733 47.91 13.46C48.47 13.74 48.8967 14.1433 49.19 14.67C49.49 15.1967 49.64 15.8167 49.64 16.53C49.64 17.2433 49.49 17.8633 49.19 18.39C48.8967 18.91 48.47 19.31 47.91 19.59C47.3567 19.8633 46.7 20 45.94 20H43.77V13.03H45.94ZM45.94 19.25C46.84 19.25 47.5267 19.0133 48 18.54C48.4733 18.06 48.71 17.39 48.71 16.53C48.71 15.6633 48.47 14.9867 47.99 14.5C47.5167 14.0133 46.8333 13.77 45.94 13.77H44.68V19.25H45.94ZM53.2303 20.09C52.717 20.09 52.2503 19.9733 51.8303 19.74C51.417 19.5067 51.0903 19.1767 50.8503 18.75C50.617 18.3167 50.5003 17.8167 50.5003 17.25C50.5003 16.69 50.6203 16.1967 50.8603 15.77C51.107 15.3367 51.4403 15.0067 51.8603 14.78C52.2803 14.5467 52.7503 14.43 53.2703 14.43C53.7903 14.43 54.2603 14.5467 54.6803 14.78C55.1003 15.0067 55.4303 15.3333 55.6703 15.76C55.917 16.1867 56.0403 16.6833 56.0403 17.25C56.0403 17.8167 55.9136 18.3167 55.6603 18.75C55.4136 19.1767 55.077 19.5067 54.6503 19.74C54.2236 19.9733 53.7503 20.09 53.2303 20.09ZM53.2303 19.29C53.557 19.29 53.8636 19.2133 54.1503 19.06C54.437 18.9067 54.667 18.6767 54.8403 18.37C55.0203 18.0633 55.1103 17.69 55.1103 17.25C55.1103 16.81 55.0236 16.4367 54.8503 16.13C54.677 15.8233 54.4503 15.5967 54.1703 15.45C53.8903 15.2967 53.587 15.22 53.2603 15.22C52.927 15.22 52.6203 15.2967 52.3403 15.45C52.067 15.5967 51.847 15.8233 51.6803 16.13C51.5136 16.4367 51.4303 16.81 51.4303 17.25C51.4303 17.6967 51.5103 18.0733 51.6703 18.38C51.837 18.6867 52.057 18.9167 52.3303 19.07C52.6036 19.2167 52.9036 19.29 53.2303 19.29ZM64.5368 14.52L62.8268 20H61.8868L60.5668 15.65L59.2468 20H58.3068L56.5868 14.52H57.5168L58.7768 19.12L60.1368 14.52H61.0668L62.3968 19.13L63.6368 14.52H64.5368ZM68.1099 14.42C68.7766 14.42 69.3166 14.6233 69.7299 15.03C70.1433 15.43 70.3499 16.01 70.3499 16.77V20H69.4499V16.9C69.4499 16.3533 69.3133 15.9367 69.0399 15.65C68.7666 15.3567 68.3933 15.21 67.9199 15.21C67.4399 15.21 67.0566 15.36 66.7699 15.66C66.4899 15.96 66.3499 16.3967 66.3499 16.97V20H65.4399V14.52H66.3499V15.3C66.5299 15.02 66.7733 14.8033 67.0799 14.65C67.3933 14.4967 67.7366 14.42 68.1099 14.42ZM72.7464 12.6V20H71.8364V12.6H72.7464ZM76.6873 20.09C76.174 20.09 75.7073 19.9733 75.2873 19.74C74.874 19.5067 74.5473 19.1767 74.3073 18.75C74.074 18.3167 73.9573 17.8167 73.9573 17.25C73.9573 16.69 74.0773 16.1967 74.3173 15.77C74.564 15.3367 74.8973 15.0067 75.3173 14.78C75.7373 14.5467 76.2073 14.43 76.7273 14.43C77.2473 14.43 77.7173 14.5467 78.1373 14.78C78.5573 15.0067 78.8873 15.3333 79.1273 15.76C79.374 16.1867 79.4973 16.6833 79.4973 17.25C79.4973 17.8167 79.3707 18.3167 79.1173 18.75C78.8707 19.1767 78.534 19.5067 78.1073 19.74C77.6807 19.9733 77.2073 20.09 76.6873 20.09ZM76.6873 19.29C77.014 19.29 77.3207 19.2133 77.6073 19.06C77.894 18.9067 78.124 18.6767 78.2973 18.37C78.4773 18.0633 78.5673 17.69 78.5673 17.25C78.5673 16.81 78.4807 16.4367 78.3073 16.13C78.134 15.8233 77.9073 15.5967 77.6273 15.45C77.3473 15.2967 77.044 15.22 76.7173 15.22C76.384 15.22 76.0773 15.2967 75.7973 15.45C75.524 15.5967 75.304 15.8233 75.1373 16.13C74.9707 16.4367 74.8873 16.81 74.8873 17.25C74.8873 17.6967 74.9673 18.0733 75.1273 18.38C75.294 18.6867 75.514 18.9167 75.7873 19.07C76.0607 19.2167 76.3607 19.29 76.6873 19.29ZM80.3538 17.24C80.3538 16.68 80.4672 16.19 80.6938 15.77C80.9205 15.3433 81.2305 15.0133 81.6238 14.78C82.0238 14.5467 82.4672 14.43 82.9538 14.43C83.4338 14.43 83.8505 14.5333 84.2038 14.74C84.5572 14.9467 84.8205 15.2067 84.9938 15.52V14.52H85.9138V20H84.9938V18.98C84.8138 19.3 84.5438 19.5667 84.1838 19.78C83.8305 19.9867 83.4172 20.09 82.9438 20.09C82.4572 20.09 82.0172 19.97 81.6238 19.73C81.2305 19.49 80.9205 19.1533 80.6938 18.72C80.4672 18.2867 80.3538 17.7933 80.3538 17.24ZM84.9938 17.25C84.9938 16.8367 84.9105 16.4767 84.7438 16.17C84.5772 15.8633 84.3505 15.63 84.0638 15.47C83.7838 15.3033 83.4738 15.22 83.1338 15.22C82.7938 15.22 82.4838 15.3 82.2038 15.46C81.9238 15.62 81.7005 15.8533 81.5338 16.16C81.3672 16.4667 81.2838 16.8267 81.2838 17.24C81.2838 17.66 81.3672 18.0267 81.5338 18.34C81.7005 18.6467 81.9238 18.8833 82.2038 19.05C82.4838 19.21 82.7938 19.29 83.1338 19.29C83.4738 19.29 83.7838 19.21 84.0638 19.05C84.3505 18.8833 84.5772 18.6467 84.7438 18.34C84.9105 18.0267 84.9938 17.6633 84.9938 17.25ZM87.1116 17.24C87.1116 16.68 87.225 16.19 87.4516 15.77C87.6783 15.3433 87.9883 15.0133 88.3816 14.78C88.7816 14.5467 89.2283 14.43 89.7216 14.43C90.1483 14.43 90.545 14.53 90.9116 14.73C91.2783 14.9233 91.5583 15.18 91.7516 15.5V12.6H92.6716V20H91.7516V18.97C91.5716 19.2967 91.305 19.5667 90.9516 19.78C90.5983 19.9867 90.185 20.09 89.7116 20.09C89.225 20.09 88.7816 19.97 88.3816 19.73C87.9883 19.49 87.6783 19.1533 87.4516 18.72C87.225 18.2867 87.1116 17.7933 87.1116 17.24ZM91.7516 17.25C91.7516 16.8367 91.6683 16.4767 91.5016 16.17C91.335 15.8633 91.1083 15.63 90.8216 15.47C90.5416 15.3033 90.2316 15.22 89.8916 15.22C89.5516 15.22 89.2416 15.3 88.9616 15.46C88.6816 15.62 88.4583 15.8533 88.2916 16.16C88.125 16.4667 88.0416 16.8267 88.0416 17.24C88.0416 17.66 88.125 18.0267 88.2916 18.34C88.4583 18.6467 88.6816 18.8833 88.9616 19.05C89.2416 19.21 89.5516 19.29 89.8916 19.29C90.2316 19.29 90.5416 19.21 90.8216 19.05C91.1083 18.8833 91.335 18.6467 91.5016 18.34C91.6683 18.0267 91.7516 17.6633 91.7516 17.25ZM99.2655 20.09C98.7521 20.09 98.2855 19.9733 97.8655 19.74C97.4521 19.5067 97.1255 19.1767 96.8855 18.75C96.6521 18.3167 96.5355 17.8167 96.5355 17.25C96.5355 16.69 96.6555 16.1967 96.8955 15.77C97.1421 15.3367 97.4755 15.0067 97.8955 14.78C98.3155 14.5467 98.7855 14.43 99.3055 14.43C99.8255 14.43 100.295 14.5467 100.715 14.78C101.135 15.0067 101.465 15.3333 101.705 15.76C101.952 16.1867 102.075 16.6833 102.075 17.25C102.075 17.8167 101.949 18.3167 101.695 18.75C101.449 19.1767 101.112 19.5067 100.685 19.74C100.259 19.9733 99.7855 20.09 99.2655 20.09ZM99.2655 19.29C99.5921 19.29 99.8988 19.2133 100.185 19.06C100.472 18.9067 100.702 18.6767 100.875 18.37C101.055 18.0633 101.145 17.69 101.145 17.25C101.145 16.81 101.059 16.4367 100.885 16.13C100.712 15.8233 100.485 15.5967 100.205 15.45C99.9255 15.2967 99.6221 15.22 99.2955 15.22C98.9621 15.22 98.6555 15.2967 98.3755 15.45C98.1021 15.5967 97.8821 15.8233 97.7155 16.13C97.5488 16.4367 97.4655 16.81 97.4655 17.25C97.4655 17.6967 97.5455 18.0733 97.7055 18.38C97.8721 18.6867 98.0921 18.9167 98.3655 19.07C98.6388 19.2167 98.9388 19.29 99.2655 19.29ZM105.942 14.42C106.609 14.42 107.149 14.6233 107.562 15.03C107.975 15.43 108.182 16.01 108.182 16.77V20H107.282V16.9C107.282 16.3533 107.145 15.9367 106.872 15.65C106.599 15.3567 106.225 15.21 105.752 15.21C105.272 15.21 104.889 15.36 104.602 15.66C104.322 15.96 104.182 16.3967 104.182 16.97V20H103.272V14.52H104.182V15.3C104.362 15.02 104.605 14.8033 104.912 14.65C105.225 14.4967 105.569 14.42 105.942 14.42ZM113.444 15.27V18.5C113.444 18.7667 113.501 18.9567 113.614 19.07C113.728 19.1767 113.924 19.23 114.204 19.23H114.874V20H114.054C113.548 20 113.168 19.8833 112.914 19.65C112.661 19.4167 112.534 19.0333 112.534 18.5V15.27H111.824V14.52H112.534V13.14H113.444V14.52H114.874V15.27H113.444ZM118.697 14.42C119.11 14.42 119.484 14.51 119.817 14.69C120.15 14.8633 120.41 15.1267 120.597 15.48C120.79 15.8333 120.887 16.2633 120.887 16.77V20H119.987V16.9C119.987 16.3533 119.85 15.9367 119.577 15.65C119.304 15.3567 118.93 15.21 118.457 15.21C117.977 15.21 117.594 15.36 117.307 15.66C117.027 15.96 116.887 16.3967 116.887 16.97V20H115.977V12.6H116.887V15.3C117.067 15.02 117.314 14.8033 117.627 14.65C117.947 14.4967 118.304 14.42 118.697 14.42ZM127.374 17.05C127.374 17.2233 127.364 17.4067 127.344 17.6H122.964C122.997 18.14 123.18 18.5633 123.514 18.87C123.854 19.17 124.264 19.32 124.744 19.32C125.137 19.32 125.464 19.23 125.724 19.05C125.99 18.8633 126.177 18.6167 126.284 18.31H127.264C127.117 18.8367 126.824 19.2667 126.384 19.6C125.944 19.9267 125.397 20.09 124.744 20.09C124.224 20.09 123.757 19.9733 123.344 19.74C122.937 19.5067 122.617 19.1767 122.384 18.75C122.15 18.3167 122.034 17.8167 122.034 17.25C122.034 16.6833 122.147 16.1867 122.374 15.76C122.6 15.3333 122.917 15.0067 123.324 14.78C123.737 14.5467 124.21 14.43 124.744 14.43C125.264 14.43 125.724 14.5433 126.124 14.77C126.524 14.9967 126.83 15.31 127.044 15.71C127.264 16.1033 127.374 16.55 127.374 17.05ZM126.434 16.86C126.434 16.5133 126.357 16.2167 126.204 15.97C126.05 15.7167 125.84 15.5267 125.574 15.4C125.314 15.2667 125.024 15.2 124.704 15.2C124.244 15.2 123.85 15.3467 123.524 15.64C123.204 15.9333 123.02 16.34 122.974 16.86H126.434Z" fill="white"/>
<path d="M49.2321 36.404H45.8961L45.3441 38H43.5801L46.5921 29.612H48.5481L51.5601 38H49.7841L49.2321 36.404ZM48.7761 35.06L47.5641 31.556L46.3521 35.06H48.7761ZM54.3659 32.312C54.5819 32.008 54.8779 31.756 55.2539 31.556C55.6379 31.348 56.0739 31.244 56.5619 31.244C57.1299 31.244 57.6419 31.384 58.0979 31.664C58.5619 31.944 58.9259 32.344 59.1899 32.864C59.4619 33.376 59.5979 33.972 59.5979 34.652C59.5979 35.332 59.4619 35.936 59.1899 36.464C58.9259 36.984 58.5619 37.388 58.0979 37.676C57.6419 37.964 57.1299 38.108 56.5619 38.108C56.0739 38.108 55.6419 38.008 55.2659 37.808C54.8979 37.608 54.5979 37.356 54.3659 37.052V41.168H52.6859V31.352H54.3659V32.312ZM57.8819 34.652C57.8819 34.252 57.7979 33.908 57.6299 33.62C57.4699 33.324 57.2539 33.1 56.9819 32.948C56.7179 32.796 56.4299 32.72 56.1179 32.72C55.8139 32.72 55.5259 32.8 55.2539 32.96C54.9899 33.112 54.7739 33.336 54.6059 33.632C54.4459 33.928 54.3659 34.276 54.3659 34.676C54.3659 35.076 54.4459 35.424 54.6059 35.72C54.7739 36.016 54.9899 36.244 55.2539 36.404C55.5259 36.556 55.8139 36.632 56.1179 36.632C56.4299 36.632 56.7179 36.552 56.9819 36.392C57.2539 36.232 57.4699 36.004 57.6299 35.708C57.7979 35.412 57.8819 35.06 57.8819 34.652ZM62.4987 32.312C62.7147 32.008 63.0107 31.756 63.3867 31.556C63.7707 31.348 64.2067 31.244 64.6947 31.244C65.2627 31.244 65.7747 31.384 66.2307 31.664C66.6947 31.944 67.0587 32.344 67.3227 32.864C67.5947 33.376 67.7307 33.972 67.7307 34.652C67.7307 35.332 67.5947 35.936 67.3227 36.464C67.0587 36.984 66.6947 37.388 66.2307 37.676C65.7747 37.964 65.2627 38.108 64.6947 38.108C64.2067 38.108 63.7747 38.008 63.3987 37.808C63.0307 37.608 62.7307 37.356 62.4987 37.052V41.168H60.8187V31.352H62.4987V32.312ZM66.0147 34.652C66.0147 34.252 65.9307 33.908 65.7627 33.62C65.6027 33.324 65.3867 33.1 65.1147 32.948C64.8507 32.796 64.5627 32.72 64.2507 32.72C63.9467 32.72 63.6587 32.8 63.3867 32.96C63.1227 33.112 62.9067 33.336 62.7387 33.632C62.5787 33.928 62.4987 34.276 62.4987 34.676C62.4987 35.076 62.5787 35.424 62.7387 35.72C62.9067 36.016 63.1227 36.244 63.3867 36.404C63.6587 36.556 63.9467 36.632 64.2507 36.632C64.5627 36.632 64.8507 36.552 65.1147 36.392C65.3867 36.232 65.6027 36.004 65.7627 35.708C65.9307 35.412 66.0147 35.06 66.0147 34.652ZM70.6315 29.12V38H68.9515V29.12H70.6315ZM78.4714 34.532C78.4714 34.772 78.4554 34.988 78.4234 35.18H73.5634C73.6034 35.66 73.7714 36.036 74.0674 36.308C74.3634 36.58 74.7274 36.716 75.1594 36.716C75.7834 36.716 76.2274 36.448 76.4914 35.912H78.3034C78.1114 36.552 77.7434 37.08 77.1994 37.496C76.6554 37.904 75.9874 38.108 75.1954 38.108C74.5554 38.108 73.9794 37.968 73.4674 37.688C72.9634 37.4 72.5674 36.996 72.2794 36.476C71.9994 35.956 71.8594 35.356 71.8594 34.676C71.8594 33.988 71.9994 33.384 72.2794 32.864C72.5594 32.344 72.9514 31.944 73.4554 31.664C73.9594 31.384 74.5394 31.244 75.1954 31.244C75.8274 31.244 76.3914 31.38 76.8874 31.652C77.3914 31.924 77.7794 32.312 78.0514 32.816C78.3314 33.312 78.4714 33.884 78.4714 34.532ZM76.7314 34.052C76.7234 33.62 76.5674 33.276 76.2634 33.02C75.9594 32.756 75.5874 32.624 75.1474 32.624C74.7314 32.624 74.3794 32.752 74.0914 33.008C73.8114 33.256 73.6394 33.604 73.5754 34.052H76.7314ZM85.449 38.084C84.865 38.084 84.337 37.984 83.865 37.784C83.401 37.584 83.033 37.296 82.761 36.92C82.489 36.544 82.349 36.1 82.341 35.588H84.141C84.165 35.932 84.285 36.204 84.501 36.404C84.725 36.604 85.029 36.704 85.413 36.704C85.805 36.704 86.113 36.612 86.337 36.428C86.561 36.236 86.673 35.988 86.673 35.684C86.673 35.436 86.597 35.232 86.445 35.072C86.293 34.912 86.101 34.788 85.869 34.7C85.645 34.604 85.333 34.5 84.933 34.388C84.389 34.228 83.945 34.072 83.601 33.92C83.265 33.76 82.973 33.524 82.725 33.212C82.485 32.892 82.365 32.468 82.365 31.94C82.365 31.444 82.489 31.012 82.737 30.644C82.985 30.276 83.333 29.996 83.781 29.804C84.229 29.604 84.741 29.504 85.317 29.504C86.181 29.504 86.881 29.716 87.417 30.14C87.961 30.556 88.261 31.14 88.317 31.892H86.469C86.453 31.604 86.329 31.368 86.097 31.184C85.873 30.992 85.573 30.896 85.197 30.896C84.869 30.896 84.605 30.98 84.405 31.148C84.213 31.316 84.117 31.56 84.117 31.88C84.117 32.104 84.189 32.292 84.333 32.444C84.485 32.588 84.669 32.708 84.885 32.804C85.109 32.892 85.421 32.996 85.821 33.116C86.365 33.276 86.809 33.436 87.153 33.596C87.497 33.756 87.793 33.996 88.041 34.316C88.289 34.636 88.413 35.056 88.413 35.576C88.413 36.024 88.297 36.44 88.065 36.824C87.833 37.208 87.493 37.516 87.045 37.748C86.597 37.972 86.065 38.084 85.449 38.084ZM91.8255 32.732V35.948C91.8255 36.172 91.8775 36.336 91.9815 36.44C92.0935 36.536 92.2775 36.584 92.5335 36.584H93.3135V38H92.2575C90.8415 38 90.1335 37.312 90.1335 35.936V32.732H89.3415V31.352H90.1335V29.708H91.8255V31.352H93.3135V32.732H91.8255ZM97.4738 38.108C96.8338 38.108 96.2578 37.968 95.7458 37.688C95.2338 37.4 94.8298 36.996 94.5338 36.476C94.2458 35.956 94.1018 35.356 94.1018 34.676C94.1018 33.996 94.2498 33.396 94.5458 32.876C94.8498 32.356 95.2618 31.956 95.7818 31.676C96.3018 31.388 96.8818 31.244 97.5218 31.244C98.1618 31.244 98.7418 31.388 99.2618 31.676C99.7818 31.956 100.19 32.356 100.486 32.876C100.79 33.396 100.942 33.996 100.942 34.676C100.942 35.356 100.786 35.956 100.474 36.476C100.17 36.996 99.7538 37.4 99.2258 37.688C98.7058 37.968 98.1218 38.108 97.4738 38.108ZM97.4738 36.644C97.7778 36.644 98.0618 36.572 98.3258 36.428C98.5978 36.276 98.8138 36.052 98.9738 35.756C99.1338 35.46 99.2138 35.1 99.2138 34.676C99.2138 34.044 99.0458 33.56 98.7098 33.224C98.3818 32.88 97.9778 32.708 97.4978 32.708C97.0178 32.708 96.6138 32.88 96.2858 33.224C95.9658 33.56 95.8058 34.044 95.8058 34.676C95.8058 35.308 95.9618 35.796 96.2738 36.14C96.5938 36.476 96.9938 36.644 97.4738 36.644ZM103.854 32.384C104.07 32.032 104.35 31.756 104.694 31.556C105.046 31.356 105.446 31.256 105.894 31.256V33.02H105.45C104.922 33.02 104.522 33.144 104.25 33.392C103.986 33.64 103.854 34.072 103.854 34.688V38H102.174V31.352H103.854V32.384ZM113.206 34.532C113.206 34.772 113.19 34.988 113.158 35.18H108.298C108.338 35.66 108.506 36.036 108.802 36.308C109.098 36.58 109.462 36.716 109.894 36.716C110.518 36.716 110.962 36.448 111.226 35.912H113.038C112.846 36.552 112.478 37.08 111.934 37.496C111.39 37.904 110.722 38.108 109.93 38.108C109.29 38.108 108.714 37.968 108.202 37.688C107.698 37.4 107.302 36.996 107.014 36.476C106.734 35.956 106.594 35.356 106.594 34.676C106.594 33.988 106.734 33.384 107.014 32.864C107.294 32.344 107.686 31.944 108.19 31.664C108.694 31.384 109.274 31.244 109.93 31.244C110.562 31.244 111.126 31.38 111.622 31.652C112.126 31.924 112.514 32.312 112.786 32.816C113.066 33.312 113.206 33.884 113.206 34.532ZM111.466 34.052C111.458 33.62 111.302 33.276 110.998 33.02C110.694 32.756 110.322 32.624 109.882 32.624C109.466 32.624 109.114 32.752 108.826 33.008C108.546 33.256 108.374 33.604 108.31 34.052H111.466Z" fill="white"/>
</svg>
