<svg width="14" height="14" viewBox="0 0 14 14" fill="none" xmlns="http://www.w3.org/2000/svg">
<path d="M12.8312 7.46793C12.1639 7.08232 11.388 6.92775 10.6239 7.0282C9.85975 7.12865 9.15014 7.4785 8.60517 8.02347C8.06021 8.56844 7.71035 9.27804 7.6099 10.0422C7.50945 10.8063 7.66403 11.5822 8.04963 12.2495H1.74788C1.59317 12.2495 1.4448 12.1881 1.33541 12.0787C1.22601 11.9693 1.16455 11.8209 1.16455 11.6662V2.33285C1.16455 2.17814 1.22601 2.02976 1.33541 1.92037C1.4448 1.81097 1.59317 1.74951 1.74788 1.74951H12.2479C12.4026 1.74951 12.551 1.81097 12.6604 1.92037C12.7698 2.02976 12.8312 2.17814 12.8312 2.33285V7.46793ZM7.03288 6.81459L3.29255 3.63834L2.53713 4.52735L7.04047 8.3511L11.4627 4.52443L10.6997 3.64184L7.03288 6.81459ZM11.6646 10.4995H13.4146L11.0812 12.8328L8.74788 10.4995H10.4979V8.16618H11.6646V10.4995Z" fill="#001B2C"/>
</svg>
