<svg width="14" height="14" viewBox="0 0 14 14" fill="none" xmlns="http://www.w3.org/2000/svg">
<path d="M12.2485 9.57784V11.6405C12.2486 11.7882 12.1926 11.9304 12.092 12.0385C11.9913 12.1465 11.8534 12.2123 11.706 12.2227C11.4511 12.2402 11.2429 12.2495 11.0819 12.2495C5.92695 12.2495 1.74854 8.07109 1.74854 2.91618C1.74854 2.75518 1.75729 2.54693 1.77537 2.29201C1.78571 2.14469 1.85154 2.00677 1.95959 1.90608C2.06763 1.8054 2.20985 1.74944 2.35754 1.74951H4.4202C4.49256 1.74944 4.56236 1.77626 4.61604 1.82477C4.66973 1.87328 4.70347 1.94002 4.7107 2.01201C4.72412 2.14618 4.73637 2.25293 4.74804 2.33401C4.86396 3.14305 5.10154 3.92991 5.4527 4.66793C5.50812 4.7846 5.47195 4.92401 5.36695 4.99868L4.10812 5.89818C4.8778 7.69161 6.30702 9.12083 8.10045 9.89051L8.99879 8.63401C9.0355 8.58268 9.08907 8.54586 9.15016 8.52998C9.21124 8.51409 9.27596 8.52015 9.33304 8.54709C10.071 8.8976 10.8576 9.13458 11.6664 9.25001C11.7475 9.26168 11.8542 9.27451 11.9872 9.28734C12.0591 9.29472 12.1257 9.32851 12.1741 9.38218C12.2225 9.43585 12.2486 9.50558 12.2485 9.57784Z" fill="#001B2C"/>
</svg>
