<svg width="697" height="692" viewBox="0 0 697 692" fill="none" xmlns="http://www.w3.org/2000/svg">
<path fill-rule="evenodd" clip-rule="evenodd" d="M314.487 400.323C299.888 379.091 309.398 346.808 336.345 328.297C363.292 309.785 396.853 312.481 411.453 333.713C421.854 348.84 420.018 369.575 408.358 386.943C408.192 385.04 407.545 383.153 406.385 381.466L398.47 369.954C394.885 364.741 387.751 363.419 382.537 367.001L379.525 369.07C382.878 362.781 383.092 355.705 379.412 350.354C373.642 341.962 360.479 340.987 350.014 348.176C339.548 355.365 335.742 367.997 341.513 376.389C345.192 381.741 351.878 384.076 358.953 383.202L355.942 385.27C350.727 388.852 349.406 395.983 352.99 401.196L360.906 412.708C362.066 414.395 363.597 415.674 365.315 416.512C344.914 421.168 324.889 415.45 314.487 400.323ZM368.844 417.575C346.804 423.704 324.424 418.144 312.914 401.404C297.506 378.997 307.788 345.597 335.263 326.723C362.738 307.85 397.619 310.225 413.027 332.632C424.537 349.372 421.71 372.247 408.087 390.618C407.452 393.278 405.866 395.721 403.434 397.392L400.017 399.739C397.174 402.452 394.056 404.992 390.677 407.313C387.299 409.634 383.808 411.633 380.256 413.314L376.839 415.661C374.407 417.332 371.557 417.936 368.844 417.575Z" fill="#0087DD" fill-opacity="0.1"/>
<path fill-rule="evenodd" clip-rule="evenodd" d="M365.817 225.803C355.598 210.941 362.255 188.343 381.118 175.385C399.98 162.427 423.474 164.314 433.693 179.176C440.974 189.765 439.689 204.28 431.527 216.438C431.41 215.105 430.958 213.784 430.146 212.603L424.605 204.545C422.095 200.895 417.102 199.97 413.451 202.478L411.344 203.926C413.69 199.523 413.84 194.571 411.265 190.824C407.225 184.95 398.012 184.267 390.686 189.3C383.36 194.333 380.695 203.174 384.735 209.049C387.311 212.795 391.991 214.43 396.943 213.818L394.835 215.266C391.185 217.774 390.26 222.765 392.769 226.414L398.31 234.472C399.122 235.653 400.194 236.549 401.397 237.135C387.116 240.394 373.098 236.392 365.817 225.803ZM403.867 237.88C388.439 242.17 372.773 238.278 364.716 226.56C353.931 210.875 361.128 187.495 380.36 174.283C399.593 161.072 424.01 162.734 434.795 178.419C442.852 190.138 440.873 206.151 431.337 219.01C430.892 220.872 429.782 222.582 428.079 223.751L425.689 225.393C423.699 227.292 421.516 229.071 419.15 230.696C416.785 232.321 414.341 233.721 411.854 234.897L409.463 236.54C407.761 237.709 405.766 238.132 403.867 237.88Z" fill="#0087DD" fill-opacity="0.1"/>
<path fill-rule="evenodd" clip-rule="evenodd" d="M292.247 554.86C282.027 539.998 288.684 517.4 307.547 504.442C326.41 491.484 349.903 493.37 360.123 508.233C367.404 518.822 366.119 533.336 357.957 545.494C357.84 544.162 357.388 542.841 356.576 541.66L351.035 533.602C348.526 529.952 343.532 529.027 339.882 531.534L337.775 532.982C340.121 528.58 340.271 523.627 337.695 519.881C333.656 514.007 324.442 513.324 317.116 518.357C309.79 523.389 307.126 532.231 311.165 538.106C313.741 541.852 318.421 543.487 323.373 542.875L321.265 544.323C317.615 546.83 316.69 551.822 319.199 555.471L324.74 563.529C325.552 564.71 326.624 565.606 327.827 566.192C313.546 569.451 299.528 565.449 292.247 554.86ZM330.297 566.937C314.869 571.227 299.203 567.335 291.146 555.617C280.36 539.932 287.558 516.552 306.79 503.34C326.022 490.129 350.439 491.791 361.225 507.476C369.282 519.194 367.303 535.207 357.767 548.066C357.322 549.928 356.212 551.638 354.51 552.808L352.119 554.451C350.128 556.35 347.945 558.128 345.58 559.753C343.215 561.378 340.771 562.778 338.284 563.954L335.893 565.596C334.191 566.766 332.196 567.189 330.297 566.937Z" fill="#0087DD" fill-opacity="0.1"/>
<path fill-rule="evenodd" clip-rule="evenodd" d="M495.889 414.968C485.669 400.106 492.326 377.508 511.189 364.55C530.052 351.592 553.545 353.479 563.764 368.341C571.045 378.93 569.76 393.445 561.598 405.603C561.481 404.27 561.029 402.949 560.217 401.768L554.676 393.71C552.167 390.06 547.173 389.135 543.523 391.642L541.415 393.09C543.762 388.688 543.912 383.735 541.336 379.989C537.297 374.115 528.083 373.432 520.757 378.465C513.431 383.497 510.767 392.339 514.806 398.214C517.382 401.96 522.062 403.595 527.015 402.983L524.907 404.431C521.256 406.938 520.331 411.93 522.84 415.579L528.381 423.637C529.193 424.818 530.266 425.714 531.468 426.3C517.187 429.559 503.17 425.557 495.889 414.968ZM533.939 427.045C518.511 431.335 502.845 427.443 494.787 415.725C484.002 400.04 491.199 376.66 510.432 363.448C529.664 350.237 554.081 351.899 564.866 367.584C572.924 379.303 570.944 395.316 561.408 408.175C560.963 410.037 559.853 411.746 558.151 412.916L555.761 414.558C553.771 416.457 551.587 418.236 549.222 419.861C546.856 421.486 544.412 422.886 541.925 424.063L539.535 425.704C537.832 426.874 535.837 427.297 533.939 427.045Z" fill="#0087DD" fill-opacity="0.1"/>
<path fill-rule="evenodd" clip-rule="evenodd" d="M162.175 365.695C151.955 350.833 158.612 328.235 177.475 315.277C196.338 302.319 219.831 304.206 230.051 319.068C237.332 329.657 236.046 344.172 227.884 356.33C227.767 354.997 227.315 353.676 226.503 352.495L220.962 344.437C218.453 340.787 213.459 339.862 209.809 342.369L207.701 343.817C210.048 339.415 210.198 334.463 207.622 330.716C203.582 324.842 194.369 324.159 187.043 329.192C179.717 334.225 177.053 343.067 181.092 348.941C183.668 352.687 188.348 354.322 193.3 353.71L191.193 355.158C187.542 357.666 186.617 362.657 189.126 366.306L194.667 374.364C195.479 375.545 196.551 376.441 197.754 377.027C183.473 380.286 169.456 376.284 162.175 365.695ZM200.225 377.772C184.797 382.062 169.131 378.17 161.073 366.452C150.288 350.767 157.486 327.387 176.718 314.175C195.95 300.964 220.367 302.626 231.152 318.311C239.21 330.03 237.23 346.043 227.694 358.902C227.249 360.764 226.139 362.474 224.437 363.643L222.048 365.284C220.057 367.184 217.874 368.963 215.508 370.588C213.142 372.213 210.698 373.613 208.21 374.79L205.821 376.431C204.118 377.601 202.123 378.024 200.225 377.772Z" fill="#0087DD" fill-opacity="0.1"/>
<path fill-rule="evenodd" clip-rule="evenodd" d="M291.64 658.829C285.8 650.336 289.604 637.423 300.383 630.018C311.162 622.614 324.586 623.692 330.426 632.185C334.587 638.236 333.852 646.53 329.188 653.478C329.121 652.716 328.863 651.961 328.399 651.286L325.233 646.681C323.799 644.596 320.945 644.067 318.859 645.5L317.655 646.327C318.996 643.811 319.082 640.981 317.61 638.841C315.302 635.484 310.037 635.094 305.85 637.97C301.664 640.845 300.142 645.898 302.45 649.255C303.922 651.395 306.596 652.33 309.426 651.98L308.221 652.807C306.135 654.24 305.607 657.093 307.041 659.178L310.207 663.783C310.671 664.457 311.284 664.969 311.971 665.304C303.81 667.167 295.801 664.879 291.64 658.829ZM313.383 665.73C304.567 668.181 295.615 665.957 291.011 659.261C284.848 650.298 288.96 636.938 299.95 629.389C310.94 621.839 324.893 622.789 331.056 631.752C335.66 638.449 334.529 647.599 329.079 654.948C328.825 656.011 328.191 656.988 327.218 657.656L325.854 658.593C324.716 659.679 323.468 660.696 322.116 661.625C320.764 662.554 319.367 663.354 317.945 664.026L316.58 664.964C315.607 665.632 314.468 665.874 313.383 665.73Z" fill="#0087DD" fill-opacity="0.1"/>
<path fill-rule="evenodd" clip-rule="evenodd" d="M418.664 571.57C412.824 563.077 416.628 550.163 427.407 542.759C438.186 535.354 451.61 536.433 457.45 544.925C461.611 550.976 460.876 559.271 456.212 566.218C456.145 565.457 455.887 564.701 455.423 564.026L452.256 559.422C450.823 557.336 447.969 556.808 445.883 558.241L444.679 559.068C446.02 556.552 446.106 553.722 444.634 551.581C442.326 548.225 437.061 547.835 432.875 550.71C428.688 553.586 427.166 558.639 429.474 561.996C430.946 564.136 433.62 565.07 436.45 564.721L435.245 565.548C433.159 566.981 432.631 569.833 434.065 571.919L437.231 576.523C437.695 577.198 438.308 577.71 438.995 578.045C430.834 579.907 422.824 577.62 418.664 571.57ZM440.407 578.47C431.591 580.922 422.639 578.698 418.035 572.002C411.872 563.039 415.984 549.679 426.974 542.13C437.964 534.58 451.917 535.53 458.08 544.493C462.684 551.189 461.553 560.34 456.103 567.688C455.849 568.752 455.215 569.729 454.242 570.397L452.877 571.334C451.74 572.42 450.492 573.437 449.14 574.365C447.788 575.294 446.391 576.094 444.97 576.767L443.604 577.705C442.631 578.373 441.491 578.614 440.407 578.47Z" fill="#0087DD" fill-opacity="0.1"/>
<path fill-rule="evenodd" clip-rule="evenodd" d="M495.282 518.937C489.442 510.444 493.246 497.531 504.025 490.126C514.804 482.722 528.229 483.8 534.068 492.293C538.229 498.344 537.494 506.638 532.83 513.586C532.763 512.824 532.505 512.069 532.041 511.394L528.875 506.789C527.441 504.704 524.587 504.175 522.501 505.608L521.296 506.436C522.638 503.92 522.723 501.09 521.251 498.949C518.943 495.592 513.678 495.202 509.492 498.078C505.306 500.954 503.783 506.006 506.092 509.363C507.564 511.504 510.238 512.438 513.068 512.088L511.864 512.916C509.778 514.349 509.249 517.201 510.683 519.286L513.849 523.891C514.313 524.566 514.926 525.077 515.613 525.412C507.452 527.275 499.443 524.987 495.282 518.937ZM517.024 525.838C508.209 528.289 499.257 526.065 494.653 519.369C488.49 510.406 492.603 497.046 503.592 489.497C514.582 481.947 528.535 482.897 534.698 491.86C539.302 498.557 538.171 507.707 532.721 515.056C532.467 516.119 531.833 517.096 530.86 517.764L529.495 518.702C528.358 519.788 527.11 520.804 525.758 521.733C524.406 522.661 523.01 523.461 521.588 524.134L520.222 525.072C519.249 525.74 518.109 525.982 517.024 525.838Z" fill="#0087DD" fill-opacity="0.1"/>
<path fill-rule="evenodd" clip-rule="evenodd" d="M622.307 431.678C616.467 423.185 620.271 410.271 631.05 402.867C641.828 395.462 655.253 396.54 661.093 405.033C665.253 411.084 664.519 419.378 659.855 426.326C659.788 425.565 659.53 424.809 659.065 424.134L655.899 419.53C654.465 417.445 651.612 416.916 649.526 418.349L648.321 419.176C649.662 416.661 649.748 413.83 648.276 411.69C645.968 408.333 640.703 407.943 636.517 410.818C632.33 413.694 630.808 418.747 633.116 422.104C634.588 424.244 637.263 425.179 640.093 424.829L638.888 425.656C636.802 427.089 636.274 429.941 637.707 432.027L640.874 436.631C641.338 437.306 641.95 437.818 642.637 438.153C634.477 440.015 626.467 437.728 622.307 431.678ZM644.049 438.578C635.233 441.03 626.281 438.806 621.677 432.11C615.514 423.147 619.627 409.787 630.617 402.238C641.607 394.688 655.559 395.638 661.722 404.601C666.327 411.297 665.195 420.448 659.746 427.796C659.492 428.86 658.858 429.837 657.885 430.505L656.519 431.443C655.382 432.528 654.134 433.545 652.783 434.473C651.431 435.402 650.034 436.202 648.613 436.874L647.247 437.813C646.274 438.481 645.134 438.723 644.049 438.578Z" fill="#0087DD" fill-opacity="0.1"/>
<path fill-rule="evenodd" clip-rule="evenodd" d="M461.065 335.339C455.225 326.846 459.029 313.932 469.808 306.528C480.587 299.123 494.011 300.202 499.851 308.695C504.011 314.745 503.277 323.039 498.614 329.986C498.547 329.225 498.288 328.47 497.824 327.796L494.658 323.191C493.224 321.106 490.371 320.577 488.285 322.01L487.08 322.837C488.421 320.322 488.507 317.491 487.035 315.351C484.727 311.994 479.462 311.604 475.276 314.48C471.089 317.355 469.567 322.408 471.875 325.765C473.347 327.905 476.021 328.84 478.852 328.49L477.647 329.317C475.561 330.75 475.032 333.602 476.466 335.688L479.633 340.292C480.096 340.967 480.709 341.479 481.396 341.814C473.236 343.676 465.225 341.389 461.065 335.339ZM482.808 342.239C473.992 344.691 465.04 342.467 460.435 335.771C454.272 326.808 458.385 313.448 469.375 305.899C480.365 298.349 494.318 299.299 500.481 308.262C505.085 314.958 503.954 324.108 498.505 331.456C498.251 332.52 497.617 333.498 496.644 334.166L495.276 335.105C494.139 336.19 492.892 337.206 491.541 338.134C490.19 339.063 488.794 339.862 487.373 340.535L486.006 341.474C485.033 342.142 483.893 342.384 482.808 342.239Z" fill="#0087DD" fill-opacity="0.1"/>
<path fill-rule="evenodd" clip-rule="evenodd" d="M500.299 236.972C494.459 228.479 498.263 215.566 509.042 208.162C519.821 200.757 533.245 201.835 539.085 210.328C543.245 216.379 542.511 224.673 537.847 231.62C537.78 230.859 537.522 230.104 537.058 229.429L533.892 224.825C532.458 222.739 529.604 222.21 527.518 223.643L526.314 224.47C527.655 221.955 527.741 219.125 526.269 216.984C523.961 213.627 518.696 213.237 514.51 216.113C510.323 218.989 508.801 224.041 511.109 227.398C512.581 229.539 515.255 230.473 518.085 230.123L516.881 230.951C514.795 232.384 514.266 235.236 515.7 237.321L518.866 241.926C519.33 242.601 519.943 243.113 520.63 243.448C512.469 245.31 504.459 243.023 500.299 236.972ZM522.041 243.873C513.225 246.324 504.274 244.101 499.669 237.405C493.506 228.442 497.619 215.082 508.609 207.532C519.599 199.983 533.551 200.933 539.714 209.896C544.319 216.592 543.188 225.742 537.739 233.09C537.484 234.154 536.85 235.131 535.877 235.8L534.511 236.738C533.374 237.824 532.126 238.84 530.775 239.768C529.423 240.696 528.027 241.496 526.606 242.169L525.239 243.107C524.266 243.776 523.126 244.017 522.041 243.873Z" fill="#0087DD" fill-opacity="0.1"/>
<path fill-rule="evenodd" clip-rule="evenodd" d="M259.44 473.846C253.6 465.353 257.404 452.439 268.183 445.035C278.962 437.63 292.386 438.709 298.226 447.202C302.387 453.252 301.652 461.547 296.988 468.494C296.921 467.733 296.663 466.977 296.199 466.303L293.032 461.698C291.599 459.613 288.745 459.084 286.659 460.517L285.455 461.344C286.796 458.828 286.882 455.998 285.41 453.858C283.102 450.501 277.837 450.111 273.65 452.986C269.464 455.862 267.942 460.915 270.25 464.272C271.722 466.412 274.396 467.346 277.226 466.997L276.021 467.824C273.935 469.257 273.407 472.109 274.841 474.195L278.007 478.799C278.471 479.474 279.084 479.986 279.771 480.321C271.61 482.183 263.6 479.896 259.44 473.846ZM281.183 480.746C272.366 483.198 263.415 480.974 258.81 474.278C252.647 465.315 256.76 451.955 267.75 444.406C278.74 436.856 292.693 437.806 298.856 446.769C303.46 453.465 302.329 462.616 296.879 469.964C296.625 471.028 295.991 472.005 295.018 472.673L293.653 473.611C292.516 474.696 291.268 475.713 289.916 476.641C288.564 477.57 287.167 478.37 285.746 479.043L284.38 479.981C283.407 480.649 282.267 480.891 281.183 480.746Z" fill="#0087DD" fill-opacity="0.1"/>
<path fill-rule="evenodd" clip-rule="evenodd" d="M137.372 486.285C131.532 477.792 135.336 464.879 146.115 457.474C156.894 450.07 170.318 451.148 176.158 459.641C180.319 465.691 179.584 473.985 174.92 480.933C174.854 480.172 174.595 479.416 174.131 478.742L170.965 474.137C169.531 472.052 166.678 471.523 164.592 472.956L163.388 473.783C164.728 471.267 164.814 468.437 163.342 466.297C161.034 462.94 155.769 462.55 151.583 465.426C147.397 468.301 145.874 473.354 148.182 476.711C149.654 478.851 152.328 479.786 155.159 479.436L153.954 480.263C151.868 481.696 151.339 484.549 152.773 486.634L155.939 491.239C156.403 491.913 157.016 492.425 157.703 492.76C149.543 494.622 141.532 492.335 137.372 486.285ZM159.115 493.186C150.299 495.637 141.347 493.413 136.743 486.717C130.58 477.754 134.692 464.394 145.682 456.845C156.672 449.295 170.625 450.245 176.788 459.208C181.392 465.904 180.261 475.054 174.812 482.403C174.558 483.467 173.923 484.444 172.95 485.112L171.584 486.051C170.447 487.136 169.199 488.152 167.848 489.081C166.497 490.009 165.1 490.809 163.679 491.481L162.313 492.42C161.34 493.088 160.2 493.33 159.115 493.186Z" fill="#0087DD" fill-opacity="0.1"/>
<path fill-rule="evenodd" clip-rule="evenodd" d="M187.162 183.086C181.322 174.593 185.126 161.68 195.905 154.275C206.684 146.871 220.108 147.949 225.948 156.442C230.109 162.493 229.374 170.787 224.71 177.735C224.643 176.973 224.385 176.218 223.921 175.543L220.754 170.938C219.321 168.853 216.467 168.324 214.381 169.757L213.176 170.585C214.517 168.069 214.603 165.239 213.131 163.098C210.823 159.741 205.558 159.351 201.372 162.227C197.186 165.103 195.663 170.155 197.971 173.512C199.443 175.653 202.118 176.587 204.948 176.237L203.743 177.065C201.657 178.498 201.129 181.35 202.563 183.435L205.729 188.04C206.193 188.715 206.806 189.226 207.493 189.562C199.332 191.424 191.322 189.137 187.162 183.086ZM208.905 189.987C200.089 192.438 191.137 190.214 186.533 183.518C180.37 174.556 184.482 161.196 195.472 153.646C206.462 146.097 220.415 147.047 226.578 156.009C231.182 162.706 230.051 171.857 224.601 179.205C224.347 180.269 223.713 181.245 222.74 181.913L221.375 182.851C220.238 183.937 218.99 184.953 217.638 185.882C216.286 186.811 214.889 187.611 213.468 188.283L212.102 189.221C211.129 189.889 209.989 190.131 208.905 189.987Z" fill="#0087DD" fill-opacity="0.1"/>
<path fill-rule="evenodd" clip-rule="evenodd" d="M419.709 85.2307C413.869 76.7378 417.673 63.8245 428.452 56.42C439.231 49.0155 452.655 50.0937 458.495 58.5866C462.656 64.6372 461.921 72.9314 457.257 79.8788C457.191 79.1175 456.932 78.3624 456.468 77.6876L453.302 73.083C451.868 70.9976 449.015 70.4688 446.929 71.9017L445.724 72.7288C447.065 70.2134 447.151 67.3833 445.679 65.2427C443.371 61.8859 438.106 61.4958 433.92 64.3716C429.734 67.2474 428.211 72.2999 430.519 75.6568C431.991 77.7974 434.665 78.7316 437.495 78.3819L436.291 79.2094C434.205 80.6423 433.676 83.4945 435.11 85.5798L438.276 90.1845C438.74 90.8592 439.353 91.371 440.04 91.7061C431.88 93.5685 423.869 91.2813 419.709 85.2307ZM441.452 92.1315C432.636 94.5829 423.684 92.3591 419.079 85.6631C412.916 76.7002 417.029 63.3402 428.019 55.7907C439.009 48.2413 452.962 49.1913 459.125 58.1541C463.729 64.8502 462.598 74.0005 457.149 81.3485C456.894 82.4126 456.26 83.3897 455.287 84.0581L453.921 84.9967C452.784 86.0819 451.536 87.0981 450.185 88.0265C448.833 88.9549 447.437 89.7548 446.016 90.427L444.65 91.3657C443.677 92.0341 442.537 92.2757 441.452 92.1315Z" fill="#0087DD" fill-opacity="0.1"/>
<path fill-rule="evenodd" clip-rule="evenodd" d="M260.424 194.651C254.584 186.158 258.388 173.245 269.167 165.841C279.946 158.436 293.371 159.514 299.21 168.007C303.371 174.058 302.637 182.352 297.973 189.299C297.906 188.538 297.647 187.783 297.183 187.108L294.017 182.503C292.583 180.418 289.73 179.889 287.644 181.322L286.44 182.149C287.781 179.634 287.866 176.804 286.394 174.663C284.086 171.306 278.821 170.916 274.635 173.792C270.449 176.668 268.926 181.72 271.235 185.077C272.706 187.218 275.381 188.152 278.211 187.802L277.006 188.63C274.92 190.063 274.391 192.915 275.825 195L278.991 199.605C279.456 200.28 280.068 200.792 280.755 201.127C272.595 202.989 264.585 200.702 260.424 194.651ZM282.167 201.552C273.351 204.003 264.399 201.78 259.795 195.084C253.632 186.121 257.745 172.761 268.734 165.211C279.724 157.662 293.677 158.612 299.84 167.575C304.444 174.271 303.313 183.421 297.864 190.769C297.61 191.833 296.976 192.81 296.003 193.479L294.637 194.417C293.5 195.502 292.252 196.518 290.9 197.447C289.549 198.376 288.152 199.176 286.731 199.848L285.365 200.786C284.392 201.454 283.252 201.696 282.167 201.552Z" fill="#0087DD" fill-opacity="0.1"/>
<path fill-rule="evenodd" clip-rule="evenodd" d="M44.6845 342.854C38.8447 334.361 42.6486 321.447 53.4275 314.043C64.2063 306.638 77.6309 307.717 83.4707 316.209C87.6312 322.26 86.8969 330.554 82.2328 337.502C82.1661 336.74 81.9076 335.985 81.4436 335.31L78.2774 330.706C76.8435 328.62 73.99 328.092 71.9041 329.525L70.7001 330.352C72.0408 327.836 72.1266 325.006 70.6547 322.866C68.3465 319.509 63.0816 319.119 58.8953 321.994C54.7091 324.87 53.1866 329.923 55.4948 333.28C56.9667 335.42 59.6407 336.354 62.4707 336.005L61.2663 336.832C59.1803 338.265 58.6516 341.117 60.0856 343.203L63.2518 347.807C63.7158 348.482 64.3284 348.994 65.0156 349.329C56.8552 351.191 48.845 348.904 44.6845 342.854ZM66.4275 349.754C57.6113 352.206 48.6593 349.982 44.055 343.286C37.8921 334.323 42.0049 320.963 52.9947 313.414C63.9846 305.864 77.9372 306.814 84.1002 315.777C88.7045 322.473 87.5734 331.623 82.1242 338.972C81.8699 340.036 81.2358 341.013 80.2629 341.681L78.8972 342.619C77.7599 343.704 76.5122 344.721 75.1605 345.649C73.8088 346.578 72.4123 347.378 70.9909 348.05L69.6251 348.989C68.6522 349.657 67.5124 349.898 66.4275 349.754Z" fill="#0087DD" fill-opacity="0.1"/>
<path d="M300.291 367.809L235.861 357.362" stroke="#0087DD" stroke-opacity="0.1" stroke-width="1.69292" stroke-dasharray="3.39 3.39"/>
<path d="M153.531 341.832L89.1014 331.385" stroke="#0087DD" stroke-opacity="0.1" stroke-width="1.69292" stroke-dasharray="3.39 3.39"/>
<path d="M396.558 246.866L383.226 310.731" stroke="#0087DD" stroke-opacity="0.1" stroke-width="1.69292" stroke-dasharray="3.39 3.39"/>
<path d="M488.847 380.483L424.417 370.036" stroke="#0087DD" stroke-opacity="0.1" stroke-width="1.69292" stroke-dasharray="3.39 3.39"/>
<path d="M270.287 206.92L224.658 299.708" stroke="#0087DD" stroke-opacity="0.1" stroke-width="1.69292" stroke-dasharray="3.39 3.39"/>
<path d="M509.156 359.435L493.592 336.799" stroke="#0087DD" stroke-opacity="0.1" stroke-width="1.69292" stroke-dasharray="3.39 3.39"/>
<path d="M305.514 499.326L289.95 476.691" stroke="#0087DD" stroke-opacity="0.1" stroke-width="1.69292" stroke-dasharray="3.39 3.39"/>
<path d="M258.043 475.298L189.364 481.515" stroke="#0087DD" stroke-opacity="0.1" stroke-width="1.69292" stroke-dasharray="3.39 3.39"/>
<path d="M615.422 410.985L572.469 404.02" stroke="#0087DD" stroke-opacity="0.1" stroke-width="1.69292" stroke-dasharray="3.39 3.39"/>
<path d="M488.478 222.052L445.525 215.087" stroke="#0087DD" stroke-opacity="0.1" stroke-width="1.69292" stroke-dasharray="3.39 3.39"/>
<path d="M353.146 193.613L310.192 186.648" stroke="#0087DD" stroke-opacity="0.1" stroke-width="1.69292" stroke-dasharray="3.39 3.39"/>
<path d="M255.542 181.8L229.77 177.621" stroke="#0087DD" stroke-opacity="0.1" stroke-width="1.69292" stroke-dasharray="3.39 3.39"/>
<path d="M415.812 548.107L372.859 541.142" stroke="#0087DD" stroke-opacity="0.1" stroke-width="1.69292" stroke-dasharray="3.39 3.39"/>
<path d="M527.821 434.692L518.933 477.268" stroke="#0087DD" stroke-opacity="0.1" stroke-width="1.69292" stroke-dasharray="3.39 3.39"/>
<path d="M426.845 106.514L416.18 157.606" stroke="#0087DD" stroke-opacity="0.1" stroke-width="1.69292" stroke-dasharray="3.39 3.39"/>
<path d="M316.113 580.124L307.225 622.701" stroke="#0087DD" stroke-opacity="0.1" stroke-width="1.69292" stroke-dasharray="3.39 3.39"/>
<path d="M346.355 423.661L333.023 487.526" stroke="#0087DD" stroke-opacity="0.1" stroke-width="1.69292" stroke-dasharray="3.39 3.39"/>
<path d="M509.491 254.463L498.826 305.555" stroke="#0087DD" stroke-opacity="0.1" stroke-width="1.69292" stroke-dasharray="3.39 3.39"/>
<path d="M184.68 387.133L171.348 450.998" stroke="#0087DD" stroke-opacity="0.1" stroke-width="1.69292" stroke-dasharray="3.39 3.39"/>
</svg>
