<svg width="422" height="694" viewBox="0 0 422 694" fill="none" xmlns="http://www.w3.org/2000/svg">
<path fill-rule="evenodd" clip-rule="evenodd" d="M39.4519 401.329C24.8521 380.086 34.3622 347.787 61.3091 329.267C88.2561 310.747 121.818 313.444 136.418 334.686C146.819 349.82 144.983 370.565 133.324 387.942C133.157 386.039 132.511 384.152 131.352 382.465L123.432 370.942C119.849 365.728 112.717 364.406 107.502 367.989L104.49 370.06C107.842 363.768 108.056 356.689 104.377 351.335C98.6061 342.939 85.444 341.963 74.9783 349.156C64.5126 356.349 60.7064 368.987 66.477 377.383C70.1568 382.737 76.8423 385.074 83.9175 384.199L80.905 386.269C75.6908 389.853 74.369 396.985 77.9526 402.199L85.8724 413.723C87.0314 415.409 88.5617 416.688 90.2782 417.526C69.8775 422.183 49.8529 416.463 39.4519 401.329ZM93.8054 418.59C71.7663 424.72 49.3883 419.158 37.8784 402.411C22.4711 379.993 32.753 346.577 60.2277 327.694C87.7024 308.811 122.584 311.187 137.991 333.605C149.501 350.352 146.674 373.237 133.053 391.616C132.418 394.278 130.833 396.723 128.4 398.395L124.981 400.745C122.138 403.458 119.02 406 115.642 408.322C112.263 410.644 108.773 412.644 105.221 414.325L101.802 416.675C99.369 418.347 96.5183 418.951 93.8054 418.59Z" fill="#0087DD" fill-opacity="0.1"/>
<path fill-rule="evenodd" clip-rule="evenodd" d="M90.782 226.725C80.5622 211.855 87.2192 189.246 106.082 176.282C124.945 163.317 148.438 165.205 158.658 180.075C165.939 190.669 164.654 205.19 156.492 217.354C156.375 216.022 155.923 214.701 155.112 213.52L149.568 205.454C147.059 201.804 142.067 200.878 138.417 203.387L136.309 204.836C138.655 200.432 138.805 195.477 136.229 191.729C132.19 185.852 122.977 185.169 115.651 190.204C108.325 195.239 105.66 204.085 109.7 209.962C112.276 213.71 116.955 215.346 121.908 214.733L119.799 216.183C116.149 218.691 115.224 223.684 117.732 227.334L123.276 235.4C124.088 236.581 125.159 237.476 126.36 238.063C112.08 241.323 98.0627 237.318 90.782 226.725ZM128.829 238.807C113.402 243.098 97.7375 239.205 89.6806 227.482C78.8955 211.789 86.0928 188.398 105.325 175.18C124.557 161.962 148.974 163.626 159.759 179.318C167.816 191.041 165.838 207.061 156.303 219.926C155.858 221.789 154.748 223.5 153.045 224.671L150.653 226.315C148.663 228.215 146.48 229.994 144.115 231.62C141.75 233.245 139.306 234.645 136.82 235.822L134.427 237.467C132.724 238.637 130.728 239.06 128.829 238.807Z" fill="#0087DD" fill-opacity="0.1"/>
<path fill-rule="evenodd" clip-rule="evenodd" d="M17.2122 555.941C6.99235 541.071 13.6494 518.461 32.5122 505.497C51.3751 492.533 74.8683 494.421 85.0881 509.291C92.3689 519.884 91.084 534.406 82.9225 546.57C82.8056 545.238 82.3535 543.916 81.5421 542.736L75.9982 534.669C73.4897 531.02 68.4973 530.094 64.8474 532.603L62.7387 534.052C65.0853 529.648 65.2354 524.693 62.6595 520.945C58.6201 515.067 49.4066 514.385 42.0806 519.42C34.7546 524.455 32.0904 533.301 36.1298 539.178C38.7056 542.926 43.3854 544.562 48.338 543.949L46.2292 545.399C42.5793 547.907 41.654 552.9 44.1625 556.55L49.7063 564.616C50.5177 565.796 51.589 566.692 52.7906 567.278C38.5101 570.539 24.4929 566.534 17.2122 555.941ZM55.2597 568.023C39.8323 572.314 24.1677 568.421 16.1107 556.698C5.32564 541.005 12.5229 517.614 31.7552 504.396C50.9875 491.178 75.4045 492.841 86.1896 508.534C94.2466 520.257 92.2679 536.277 82.7329 549.142C82.2882 551.005 81.1784 552.716 79.4754 553.887L77.0831 555.531C75.0931 557.431 72.9101 559.21 70.5451 560.835C68.18 562.461 65.7366 563.861 63.2498 565.038L60.8572 566.683C59.1541 567.853 57.1587 568.276 55.2597 568.023Z" fill="#0087DD" fill-opacity="0.1"/>
<path fill-rule="evenodd" clip-rule="evenodd" d="M220.854 415.981C210.634 401.111 217.291 378.502 236.154 365.538C255.017 352.574 278.51 354.461 288.73 369.331C296.011 379.925 294.726 394.446 286.565 406.61C286.448 405.278 285.996 403.957 285.184 402.776L279.64 394.71C277.132 391.06 272.139 390.135 268.49 392.643L266.381 394.093C268.727 389.688 268.877 384.733 266.302 380.985C262.262 375.108 253.049 374.425 245.723 379.46C238.397 384.495 235.732 393.341 239.772 399.219C242.348 402.967 247.028 404.602 251.98 403.99L249.871 405.439C246.221 407.948 245.296 412.94 247.805 416.59L253.349 424.656C254.16 425.837 255.231 426.732 256.433 427.319C242.152 430.579 228.135 426.574 220.854 415.981ZM258.901 428.064C243.474 432.355 227.81 428.461 219.753 416.738C208.968 401.046 216.165 377.654 235.397 364.436C254.63 351.218 279.047 352.882 289.832 368.574C297.889 380.297 295.91 396.317 286.375 409.182C285.931 411.045 284.821 412.757 283.118 413.927L280.724 415.572C278.735 417.472 276.552 419.251 274.187 420.876C271.822 422.501 269.379 423.901 266.893 425.078L264.499 426.723C262.796 427.894 260.801 428.317 258.901 428.064Z" fill="#0087DD" fill-opacity="0.1"/>
<path fill-rule="evenodd" clip-rule="evenodd" d="M16.6053 659.959C10.7654 651.462 14.5694 638.543 25.3482 631.135C36.1269 623.727 49.5516 624.805 55.3915 633.302C59.552 639.356 58.8177 647.654 54.1537 654.605C54.087 653.844 53.8286 653.089 53.3649 652.414L50.197 647.805C48.7635 645.719 45.9107 645.19 43.8251 646.624L42.6202 647.452C43.9611 644.935 44.0469 642.104 42.5749 639.962C40.2667 636.603 35.0019 636.213 30.8156 639.09C26.6293 641.967 25.1069 647.022 27.4151 650.381C28.887 652.523 31.5612 653.457 34.3913 653.107L33.1861 653.936C31.1004 655.369 30.5717 658.222 32.0051 660.308L35.1731 664.917C35.6367 665.591 36.2488 666.103 36.9354 666.438C28.7753 668.301 20.7656 666.013 16.6053 659.959ZM38.3463 666.864C29.5308 669.316 20.5798 667.091 15.9759 660.392C9.81296 651.425 13.9257 638.058 24.9156 630.505C35.9055 622.952 49.858 623.903 56.0209 632.87C60.6251 639.569 59.4942 648.723 54.0453 656.075C53.7911 657.14 53.157 658.117 52.1839 658.786L50.8175 659.725C49.6803 660.811 48.4328 661.828 47.0812 662.756C45.7297 663.685 44.3333 664.486 42.9121 665.158L41.545 666.098C40.5717 666.767 39.4315 667.008 38.3463 666.864Z" fill="#0087DD" fill-opacity="0.1"/>
<path fill-rule="evenodd" clip-rule="evenodd" d="M143.629 572.658C137.789 564.161 141.593 551.241 152.372 543.833C163.151 536.425 176.576 537.504 182.415 546.001C186.576 552.055 185.842 560.353 181.178 567.304C181.111 566.542 180.853 565.787 180.389 565.112L177.221 560.503C175.787 558.417 172.935 557.889 170.849 559.322L169.644 560.15C170.985 557.633 171.071 554.802 169.599 552.66C167.291 549.302 162.026 548.912 157.84 551.789C153.653 554.666 152.131 559.721 154.439 563.079C155.911 565.221 158.585 566.156 161.415 565.806L160.21 566.634C158.124 568.068 157.596 570.92 159.029 573.006L162.197 577.615C162.661 578.29 163.273 578.802 163.959 579.137C155.799 581 147.79 578.711 143.629 572.658ZM165.37 579.562C156.555 582.014 147.604 579.789 143 573.091C136.837 564.123 140.95 550.757 151.94 543.204C162.929 535.651 176.882 536.601 183.045 545.568C187.649 552.267 186.518 561.422 181.069 568.774C180.815 569.838 180.181 570.816 179.208 571.484L177.842 572.423C176.705 573.509 175.457 574.526 174.105 575.455C172.753 576.384 171.357 577.184 169.936 577.857L168.569 578.796C167.596 579.465 166.455 579.707 165.37 579.562Z" fill="#0087DD" fill-opacity="0.1"/>
<path fill-rule="evenodd" clip-rule="evenodd" d="M220.247 520C214.407 511.503 218.211 498.583 228.99 491.175C239.769 483.767 253.194 484.846 259.034 493.343C263.194 499.396 262.46 507.695 257.796 514.646C257.729 513.884 257.471 513.129 257.007 512.454L253.839 507.845C252.406 505.759 249.553 505.231 247.467 506.664L246.262 507.492C247.603 504.975 247.689 502.144 246.217 500.002C243.909 496.644 238.644 496.254 234.458 499.131C230.272 502.008 228.749 507.063 231.057 510.421C232.529 512.563 235.203 513.498 238.033 513.148L236.828 513.976C234.742 515.409 234.214 518.262 235.647 520.348L238.815 524.957C239.279 525.632 239.891 526.144 240.578 526.479C232.417 528.342 224.408 526.053 220.247 520ZM241.989 526.904C233.173 529.356 224.222 527.131 219.618 520.432C213.455 511.465 217.568 498.099 228.558 490.546C239.548 482.993 253.5 483.943 259.663 492.91C264.267 499.609 263.136 508.764 257.687 516.116C257.433 517.18 256.799 518.158 255.826 518.826L254.46 519.765C253.323 520.851 252.075 521.868 250.723 522.797C249.372 523.726 247.975 524.526 246.554 525.199L245.187 526.138C244.214 526.807 243.074 527.049 241.989 526.904Z" fill="#0087DD" fill-opacity="0.1"/>
<path fill-rule="evenodd" clip-rule="evenodd" d="M347.272 432.698C341.432 424.201 345.236 411.282 356.015 403.874C366.793 396.466 380.218 397.544 386.058 406.041C390.218 412.095 389.484 420.393 384.821 427.344C384.754 426.582 384.495 425.828 384.032 425.153L380.864 420.544C379.43 418.458 376.578 417.929 374.492 419.363L373.287 420.191C374.628 417.674 374.714 414.843 373.242 412.701C370.933 409.342 365.669 408.952 361.482 411.829C357.296 414.706 355.774 419.761 358.082 423.12C359.554 425.262 362.228 426.196 365.058 425.846L363.853 426.675C361.767 428.108 361.239 430.961 362.672 433.047L365.84 437.656C366.304 438.33 366.916 438.842 367.602 439.177C359.442 441.04 351.432 438.752 347.272 432.698ZM369.013 439.603C360.197 442.055 351.246 439.83 346.642 433.131C340.479 424.164 344.592 410.797 355.582 403.244C366.572 395.691 380.525 396.642 386.687 405.609C391.291 412.308 390.161 421.462 384.712 428.813C384.458 429.878 383.824 430.856 382.851 431.525L381.483 432.465C380.346 433.55 379.099 434.567 377.748 435.495C376.397 436.424 375.001 437.224 373.58 437.897L372.212 438.837C371.239 439.506 370.098 439.747 369.013 439.603Z" fill="#0087DD" fill-opacity="0.1"/>
<path fill-rule="evenodd" clip-rule="evenodd" d="M186.031 336.313C180.191 327.816 183.995 314.896 194.773 307.488C205.552 300.08 218.977 301.159 224.817 309.656C228.977 315.71 228.243 324.007 223.579 330.958C223.513 330.197 223.254 329.442 222.791 328.768L219.623 324.158C218.189 322.073 215.336 321.544 213.251 322.977L212.046 323.806C213.387 321.289 213.472 318.457 212 316.316C209.692 312.957 204.427 312.567 200.241 315.444C196.055 318.321 194.532 323.376 196.841 326.735C198.313 328.876 200.987 329.811 203.817 329.461L202.612 330.289C200.526 331.723 199.997 334.576 201.431 336.661L204.599 341.271C205.062 341.945 205.674 342.457 206.361 342.792C198.201 344.655 190.191 342.366 186.031 336.313ZM207.772 343.218C198.956 345.669 190.005 343.444 185.401 336.746C179.238 327.779 183.351 314.412 194.341 306.859C205.331 299.306 219.283 300.256 225.446 309.223C230.05 315.922 228.92 325.076 223.471 332.428C223.217 333.493 222.583 334.471 221.61 335.14L220.242 336.08C219.105 337.165 217.858 338.182 216.506 339.11C215.155 340.039 213.759 340.839 212.339 341.511L210.971 342.452C209.997 343.12 208.857 343.362 207.772 343.218Z" fill="#0087DD" fill-opacity="0.1"/>
<path fill-rule="evenodd" clip-rule="evenodd" d="M225.264 237.899C219.425 229.402 223.229 216.483 234.007 209.075C244.786 201.666 258.211 202.745 264.051 211.242C268.211 217.296 267.477 225.594 262.813 232.544C262.746 231.783 262.488 231.028 262.024 230.354L258.856 225.744C257.423 223.659 254.57 223.13 252.485 224.563L251.28 225.391C252.621 222.875 252.706 220.043 251.235 217.902C248.926 214.543 243.661 214.153 239.475 217.03C235.289 219.907 233.766 224.962 236.075 228.321C237.547 230.462 240.221 231.397 243.051 231.047L241.846 231.875C239.76 233.309 239.231 236.162 240.665 238.247L243.833 242.857C244.296 243.531 244.908 244.043 245.595 244.378C237.435 246.241 229.425 243.953 225.264 237.899ZM247.006 244.804C238.19 247.256 229.239 245.031 224.635 238.332C218.472 229.365 222.585 215.998 233.575 208.445C244.565 200.892 258.517 201.843 264.68 210.81C269.284 217.509 268.153 226.663 262.705 234.014C262.451 235.079 261.817 236.057 260.843 236.726L259.477 237.665C258.339 238.751 257.092 239.767 255.74 240.696C254.389 241.625 252.993 242.425 251.571 243.098L250.204 244.037C249.231 244.706 248.091 244.948 247.006 244.804Z" fill="#0087DD" fill-opacity="0.1"/>
<path fill-rule="evenodd" clip-rule="evenodd" d="M-15.5949 474.887C-21.4348 466.39 -17.6308 453.47 -6.85203 446.062C3.92675 438.654 17.3514 439.733 23.1913 448.23C27.3518 454.283 26.6175 462.582 21.9535 469.532C21.8868 468.771 21.6284 468.016 21.1647 467.341L17.9968 462.732C16.5633 460.646 13.7106 460.118 11.6249 461.551L10.42 462.379C11.7609 459.862 11.8467 457.031 10.3748 454.889C8.06652 451.531 2.80167 451.141 -1.38461 454.018C-5.57089 456.895 -7.09335 461.95 -4.78511 465.308C-3.31319 467.45 -0.639 468.385 2.19112 468.035L0.985914 468.863C-1.09975 470.296 -1.62849 473.149 -0.195052 475.235L2.97287 479.844C3.4365 480.519 4.04863 481.031 4.73525 481.366C-3.42489 483.229 -11.4346 480.94 -15.5949 474.887ZM6.14621 481.791C-2.66937 484.243 -11.6204 482.018 -16.2243 475.319C-22.3872 466.352 -18.2745 452.986 -7.28461 445.433C3.70527 437.88 17.6578 438.83 23.8207 447.797C28.4249 454.496 27.294 463.651 21.8451 471.002C21.5909 472.067 20.9567 473.045 19.9837 473.713L18.6175 474.652C17.4802 475.738 16.2326 476.755 14.881 477.684C13.5294 478.613 12.133 479.413 10.7117 480.086L9.34477 481.025C8.37156 481.694 7.23133 481.936 6.14621 481.791Z" fill="#0087DD" fill-opacity="0.1"/>
<path fill-rule="evenodd" clip-rule="evenodd" d="M144.674 86.0843C138.834 77.5872 142.638 64.6677 153.417 57.2596C164.196 49.8516 177.62 50.9301 183.46 59.4273C187.621 65.4807 186.887 73.7786 182.223 80.7293C182.156 79.9682 181.898 79.2133 181.434 78.5388L178.266 73.9294C176.833 71.8437 173.98 71.315 171.894 72.7484L170.69 73.5764C172.031 71.0597 172.116 68.2283 170.644 66.0867C168.336 62.7281 163.071 62.3379 158.885 65.2151C154.699 68.0922 153.176 73.1472 155.485 76.5057C156.956 78.6473 159.631 79.582 162.461 79.2321L161.255 80.0604C159.17 81.4938 158.641 84.3466 160.074 86.4323L163.242 91.0417C163.706 91.7162 164.318 92.2279 165.005 92.5631C156.844 94.4261 148.835 92.1377 144.674 86.0843ZM166.416 92.9887C157.6 95.4407 148.649 93.2157 144.045 86.5169C137.882 77.5498 141.995 64.1833 152.984 56.6302C163.974 49.0771 177.927 50.0276 184.09 58.9947C188.694 65.6935 187.563 74.8476 182.115 82.199C181.861 83.2638 181.226 84.2418 180.253 84.9107L178.886 85.8505C177.749 86.9361 176.501 87.9527 175.15 88.8814C173.799 89.8101 172.403 90.6102 170.982 91.2827L169.614 92.2226C168.641 92.8915 167.501 93.1331 166.416 92.9887Z" fill="#0087DD" fill-opacity="0.1"/>
<path fill-rule="evenodd" clip-rule="evenodd" d="M-14.6105 195.558C-20.4505 187.06 -16.6464 174.141 -5.86765 166.733C4.91113 159.325 18.3358 160.403 24.1757 168.901C28.3361 174.954 27.6019 183.252 22.9382 190.203C22.8714 189.442 22.613 188.687 22.1494 188.012L18.9815 183.403C17.548 181.317 14.6952 180.788 12.6096 182.222L11.4047 183.05C12.7456 180.533 12.8314 177.702 11.3595 175.56C9.05122 172.202 3.78637 171.811 -0.399911 174.688C-4.58619 177.566 -6.10865 182.621 -3.80041 185.979C-2.32849 188.121 0.345697 189.055 3.17581 188.706L1.97061 189.534C-0.115055 190.967 -0.643791 193.82 0.789647 195.906L3.95757 200.515C4.42116 201.19 5.03323 201.701 5.71979 202.036C-2.44041 203.899 -10.4502 201.611 -14.6105 195.558ZM7.13058 202.462C-1.68499 204.914 -10.636 202.689 -15.2399 195.99C-21.4029 187.023 -17.2901 173.657 -6.30023 166.103C4.68965 158.55 18.6422 159.501 24.8051 168.468C29.4091 175.167 28.2784 184.321 22.8299 191.672C22.5759 192.737 21.9417 193.715 20.9684 194.384L19.6008 195.324C18.4639 196.409 17.2166 197.426 15.8654 198.355C14.5142 199.283 13.1182 200.083 11.6974 200.756L10.3295 201.696C9.35617 202.365 8.2158 202.607 7.13058 202.462Z" fill="#0087DD" fill-opacity="0.1"/>
<path d="M25.2559 368.799L-39.174 358.347" stroke="#0087DD" stroke-opacity="0.1" stroke-width="1.69292" stroke-dasharray="3.39 3.39"/>
<path d="M121.523 247.798L108.191 311.694" stroke="#0087DD" stroke-opacity="0.1" stroke-width="1.69292" stroke-dasharray="3.39 3.39"/>
<path d="M213.812 381.479L149.383 371.027" stroke="#0087DD" stroke-opacity="0.1" stroke-width="1.69292" stroke-dasharray="3.39 3.39"/>
<path d="M234.122 360.421L218.557 337.774" stroke="#0087DD" stroke-opacity="0.1" stroke-width="1.69292" stroke-dasharray="3.39 3.39"/>
<path d="M30.4795 500.38L14.9153 477.734" stroke="#0087DD" stroke-opacity="0.1" stroke-width="1.69292" stroke-dasharray="3.39 3.39"/>
<path d="M340.388 411.996L297.434 405.028" stroke="#0087DD" stroke-opacity="0.1" stroke-width="1.69292" stroke-dasharray="3.39 3.39"/>
<path d="M213.443 222.971L170.49 216.003" stroke="#0087DD" stroke-opacity="0.1" stroke-width="1.69292" stroke-dasharray="3.39 3.39"/>
<path d="M78.1113 194.519L35.1581 187.551" stroke="#0087DD" stroke-opacity="0.1" stroke-width="1.69292" stroke-dasharray="3.39 3.39"/>
<path d="M140.778 549.184L97.8246 542.216" stroke="#0087DD" stroke-opacity="0.1" stroke-width="1.69292" stroke-dasharray="3.39 3.39"/>
<path d="M252.786 435.714L243.898 478.311" stroke="#0087DD" stroke-opacity="0.1" stroke-width="1.69292" stroke-dasharray="3.39 3.39"/>
<path d="M151.811 107.378L141.145 158.495" stroke="#0087DD" stroke-opacity="0.1" stroke-width="1.69292" stroke-dasharray="3.39 3.39"/>
<path d="M41.0786 581.216L32.1907 623.814" stroke="#0087DD" stroke-opacity="0.1" stroke-width="1.69292" stroke-dasharray="3.39 3.39"/>
<path d="M71.3208 424.678L57.989 488.574" stroke="#0087DD" stroke-opacity="0.1" stroke-width="1.69292" stroke-dasharray="3.39 3.39"/>
<path d="M234.457 255.398L223.791 306.515" stroke="#0087DD" stroke-opacity="0.1" stroke-width="1.69292" stroke-dasharray="3.39 3.39"/>
</svg>
