<svg width="711" height="492" viewBox="0 0 711 492" fill="none" xmlns="http://www.w3.org/2000/svg">
<rect x="559.168" y="-16.3112" width="17.4978" height="17.4674" transform="rotate(38.5 559.168 -16.3112)" fill="#0087DD" fill-opacity="0.1"/>
<rect x="543.945" y="2.82666" width="17.4978" height="17.4674" transform="rotate(38.5 543.945 2.82666)" fill="#0087DD" fill-opacity="0.1"/>
<rect x="528.722" y="21.9646" width="17.4978" height="17.4674" transform="rotate(38.5 528.722 21.9646)" fill="#0087DD" fill-opacity="0.1"/>
<rect x="513.499" y="41.1021" width="17.4978" height="17.4674" transform="rotate(38.5 513.499 41.1021)" fill="#0087DD" fill-opacity="0.1"/>
<rect x="498.276" y="60.2399" width="17.4978" height="17.4674" transform="rotate(38.5 498.276 60.2399)" fill="#0087DD" fill-opacity="0.1"/>
<rect x="483.053" y="79.3778" width="17.4978" height="17.4674" transform="rotate(38.5 483.053 79.3778)" fill="#0087DD" fill-opacity="0.1"/>
<rect x="467.83" y="98.5156" width="17.4978" height="17.4674" transform="rotate(38.5 467.83 98.5156)" fill="#0087DD" fill-opacity="0.1"/>
<rect x="452.607" y="117.654" width="17.4978" height="17.4674" transform="rotate(38.5 452.607 117.654)" fill="#0087DD" fill-opacity="0.1"/>
<rect x="437.384" y="136.792" width="17.4978" height="17.4674" transform="rotate(38.5 437.384 136.792)" fill="#0087DD" fill-opacity="0.1"/>
<rect x="422.161" y="155.93" width="17.4978" height="17.4674" transform="rotate(38.5 422.161 155.93)" fill="#0087DD" fill-opacity="0.1"/>
<rect x="406.938" y="175.068" width="17.4978" height="17.4674" transform="rotate(38.5 406.938 175.068)" fill="#0087DD" fill-opacity="0.1"/>
<rect x="391.715" y="194.205" width="17.4978" height="17.4674" transform="rotate(38.5 391.715 194.205)" fill="#0087DD" fill-opacity="0.1"/>
<rect x="376.492" y="213.343" width="17.4978" height="17.4674" transform="rotate(38.5 376.492 213.343)" fill="#0087DD" fill-opacity="0.1"/>
<rect x="361.27" y="232.481" width="17.4978" height="17.4674" transform="rotate(38.5 361.27 232.481)" fill="#0087DD" fill-opacity="0.1"/>
<rect x="346.046" y="251.619" width="17.4978" height="17.4674" transform="rotate(38.5 346.046 251.619)" fill="#0087DD" fill-opacity="0.1"/>
<rect x="330.823" y="270.757" width="17.4978" height="17.4674" transform="rotate(38.5 330.823 270.757)" fill="#0087DD" fill-opacity="0.1"/>
<rect x="315.601" y="289.895" width="17.4978" height="17.4674" transform="rotate(38.5 315.601 289.895)" fill="#0087DD" fill-opacity="0.1"/>
<rect x="300.377" y="309.032" width="17.4978" height="17.4674" transform="rotate(38.5 300.377 309.032)" fill="#0087DD" fill-opacity="0.1"/>
<rect x="285.155" y="328.17" width="17.4978" height="17.4674" transform="rotate(38.5 285.155 328.17)" fill="#0087DD" fill-opacity="0.1"/>
<rect x="269.932" y="347.308" width="17.4978" height="17.4674" transform="rotate(38.5 269.932 347.308)" fill="#0087DD" fill-opacity="0.1"/>
<rect x="254.708" y="366.446" width="17.4978" height="17.4674" transform="rotate(38.5 254.708 366.446)" fill="#0087DD" fill-opacity="0.1"/>
<rect x="239.486" y="385.584" width="17.4978" height="17.4674" transform="rotate(38.5 239.486 385.584)" fill="#0087DD" fill-opacity="0.1"/>
<rect x="224.263" y="404.722" width="17.4978" height="17.4674" transform="rotate(38.5 224.263 404.722)" fill="#0087DD" fill-opacity="0.1"/>
<rect x="209.04" y="423.86" width="17.4978" height="17.4674" transform="rotate(38.5 209.04 423.86)" fill="#0087DD" fill-opacity="0.1"/>
<rect x="193.817" y="442.998" width="17.4978" height="17.4674" transform="rotate(38.5 193.817 442.998)" fill="#0087DD" fill-opacity="0.1"/>
<rect x="178.594" y="462.136" width="17.4978" height="17.4674" transform="rotate(38.5 178.594 462.136)" fill="#0087DD" fill-opacity="0.1"/>
<rect x="163.371" y="481.273" width="17.4978" height="17.4674" transform="rotate(38.5 163.371 481.273)" fill="#0087DD" fill-opacity="0.1"/>
<rect x="594.932" y="-19.1111" width="17.4978" height="17.4674" transform="rotate(38.5 594.932 -19.1111)" fill="#0087DD" fill-opacity="0.1"/>
<rect x="579.708" y="0.0272217" width="17.4978" height="17.4674" transform="rotate(38.5 579.708 0.0272217)" fill="#0087DD" fill-opacity="0.1"/>
<rect x="564.486" y="19.1649" width="17.4978" height="17.4674" transform="rotate(38.5 564.486 19.1649)" fill="#0087DD" fill-opacity="0.1"/>
<rect x="549.263" y="38.3027" width="17.4978" height="17.4674" transform="rotate(38.5 549.263 38.3027)" fill="#0087DD" fill-opacity="0.1"/>
<rect x="534.04" y="57.4406" width="17.4978" height="17.4674" transform="rotate(38.5 534.04 57.4406)" fill="#0087DD" fill-opacity="0.1"/>
<rect x="518.817" y="76.5785" width="17.4978" height="17.4674" transform="rotate(38.5 518.817 76.5785)" fill="#0087DD" fill-opacity="0.1"/>
<rect x="503.594" y="95.7164" width="17.4978" height="17.4674" transform="rotate(38.5 503.594 95.7164)" fill="#0087DD" fill-opacity="0.1"/>
<rect x="488.371" y="114.854" width="17.4978" height="17.4674" transform="rotate(38.5 488.371 114.854)" fill="#0087DD" fill-opacity="0.1"/>
<rect x="473.148" y="133.992" width="17.4978" height="17.4674" transform="rotate(38.5 473.148 133.992)" fill="#0087DD" fill-opacity="0.1"/>
<rect x="457.925" y="153.13" width="17.4978" height="17.4674" transform="rotate(38.5 457.925 153.13)" fill="#0087DD" fill-opacity="0.1"/>
<rect x="442.702" y="172.268" width="17.4978" height="17.4674" transform="rotate(38.5 442.702 172.268)" fill="#0087DD" fill-opacity="0.1"/>
<rect x="427.479" y="191.406" width="17.4978" height="17.4674" transform="rotate(38.5 427.479 191.406)" fill="#0087DD" fill-opacity="0.1"/>
<rect x="412.256" y="210.544" width="17.4978" height="17.4674" transform="rotate(38.5 412.256 210.544)" fill="#0087DD" fill-opacity="0.1"/>
<rect x="397.033" y="229.681" width="17.4978" height="17.4674" transform="rotate(38.5 397.033 229.681)" fill="#0087DD" fill-opacity="0.1"/>
<rect x="381.811" y="248.819" width="17.4978" height="17.4674" transform="rotate(38.5 381.811 248.819)" fill="#0087DD" fill-opacity="0.1"/>
<rect x="366.587" y="267.957" width="17.4978" height="17.4674" transform="rotate(38.5 366.587 267.957)" fill="#0087DD" fill-opacity="0.1"/>
<rect x="351.365" y="287.095" width="17.4978" height="17.4674" transform="rotate(38.5 351.365 287.095)" fill="#0087DD" fill-opacity="0.1"/>
<rect x="336.142" y="306.233" width="17.4978" height="17.4674" transform="rotate(38.5 336.142 306.233)" fill="#0087DD" fill-opacity="0.1"/>
<rect x="320.918" y="325.371" width="17.4978" height="17.4674" transform="rotate(38.5 320.918 325.371)" fill="#0087DD" fill-opacity="0.1"/>
<rect x="305.696" y="344.509" width="17.4978" height="17.4674" transform="rotate(38.5 305.696 344.509)" fill="#0087DD" fill-opacity="0.1"/>
<rect x="290.473" y="363.647" width="17.4978" height="17.4674" transform="rotate(38.5 290.473 363.647)" fill="#0087DD" fill-opacity="0.1"/>
<rect x="275.25" y="382.784" width="17.4978" height="17.4674" transform="rotate(38.5 275.25 382.784)" fill="#0087DD" fill-opacity="0.1"/>
<rect x="260.026" y="401.923" width="17.4978" height="17.4674" transform="rotate(38.5 260.026 401.923)" fill="#0087DD" fill-opacity="0.1"/>
<rect x="244.804" y="421.061" width="17.4978" height="17.4674" transform="rotate(38.5 244.804 421.061)" fill="#0087DD" fill-opacity="0.1"/>
<rect x="229.581" y="440.198" width="17.4978" height="17.4674" transform="rotate(38.5 229.581 440.198)" fill="#0087DD" fill-opacity="0.1"/>
<rect x="214.357" y="459.336" width="17.4978" height="17.4674" transform="rotate(38.5 214.357 459.336)" fill="#0087DD" fill-opacity="0.1"/>
<rect x="199.135" y="478.474" width="17.4978" height="17.4674" transform="rotate(38.5 199.135 478.474)" fill="#0087DD" fill-opacity="0.1"/>
<rect x="630.696" y="-21.9098" width="17.4978" height="17.4674" transform="rotate(38.5 630.696 -21.9098)" fill="#0087DD" fill-opacity="0.1"/>
<rect x="615.473" y="-2.77185" width="17.4978" height="17.4674" transform="rotate(38.5 615.473 -2.77185)" fill="#0087DD" fill-opacity="0.1"/>
<rect x="600.25" y="16.3663" width="17.4978" height="17.4674" transform="rotate(38.5 600.25 16.3663)" fill="#0087DD" fill-opacity="0.1"/>
<rect x="585.027" y="35.5042" width="17.4978" height="17.4674" transform="rotate(38.5 585.027 35.5042)" fill="#0087DD" fill-opacity="0.1"/>
<rect x="569.804" y="54.6421" width="17.4978" height="17.4674" transform="rotate(38.5 569.804 54.6421)" fill="#0087DD" fill-opacity="0.1"/>
<rect x="554.581" y="73.78" width="17.4978" height="17.4674" transform="rotate(38.5 554.581 73.78)" fill="#0087DD" fill-opacity="0.1"/>
<rect x="539.358" y="92.9178" width="17.4978" height="17.4674" transform="rotate(38.5 539.358 92.9178)" fill="#0087DD" fill-opacity="0.1"/>
<rect x="524.135" y="112.056" width="17.4978" height="17.4674" transform="rotate(38.5 524.135 112.056)" fill="#0087DD" fill-opacity="0.1"/>
<rect x="508.912" y="131.193" width="17.4978" height="17.4674" transform="rotate(38.5 508.912 131.193)" fill="#0087DD" fill-opacity="0.1"/>
<rect x="493.689" y="150.332" width="17.4978" height="17.4674" transform="rotate(38.5 493.689 150.332)" fill="#0087DD" fill-opacity="0.1"/>
<rect x="478.466" y="169.469" width="17.4978" height="17.4674" transform="rotate(38.5 478.466 169.469)" fill="#0087DD" fill-opacity="0.1"/>
<rect x="463.243" y="188.607" width="17.4978" height="17.4674" transform="rotate(38.5 463.243 188.607)" fill="#0087DD" fill-opacity="0.1"/>
<rect x="448.02" y="207.745" width="17.4978" height="17.4674" transform="rotate(38.5 448.02 207.745)" fill="#0087DD" fill-opacity="0.1"/>
<rect x="432.797" y="226.883" width="17.4978" height="17.4674" transform="rotate(38.5 432.797 226.883)" fill="#0087DD" fill-opacity="0.1"/>
<rect x="417.574" y="246.021" width="17.4978" height="17.4674" transform="rotate(38.5 417.574 246.021)" fill="#0087DD" fill-opacity="0.1"/>
<rect x="402.351" y="265.159" width="17.4978" height="17.4674" transform="rotate(38.5 402.351 265.159)" fill="#0087DD" fill-opacity="0.1"/>
<rect x="387.128" y="284.297" width="17.4978" height="17.4674" transform="rotate(38.5 387.128 284.297)" fill="#0087DD" fill-opacity="0.1"/>
<rect x="371.905" y="303.435" width="17.4978" height="17.4674" transform="rotate(38.5 371.905 303.435)" fill="#0087DD" fill-opacity="0.1"/>
<rect x="356.682" y="322.572" width="17.4978" height="17.4674" transform="rotate(38.5 356.682 322.572)" fill="#0087DD" fill-opacity="0.1"/>
<rect x="341.459" y="341.71" width="17.4978" height="17.4674" transform="rotate(38.5 341.459 341.71)" fill="#0087DD" fill-opacity="0.1"/>
<rect x="326.236" y="360.848" width="17.4978" height="17.4674" transform="rotate(38.5 326.236 360.848)" fill="#0087DD" fill-opacity="0.1"/>
<rect x="311.013" y="379.986" width="17.4978" height="17.4674" transform="rotate(38.5 311.013 379.986)" fill="#0087DD" fill-opacity="0.1"/>
<rect x="295.791" y="399.124" width="17.4978" height="17.4674" transform="rotate(38.5 295.791 399.124)" fill="#0087DD" fill-opacity="0.1"/>
<rect x="280.567" y="418.262" width="17.4978" height="17.4674" transform="rotate(38.5 280.567 418.262)" fill="#0087DD" fill-opacity="0.1"/>
<rect x="265.345" y="437.4" width="17.4978" height="17.4674" transform="rotate(38.5 265.345 437.4)" fill="#0087DD" fill-opacity="0.1"/>
<rect x="250.122" y="456.538" width="17.4978" height="17.4674" transform="rotate(38.5 250.122 456.538)" fill="#0087DD" fill-opacity="0.1"/>
<rect x="234.899" y="475.675" width="17.4978" height="17.4674" transform="rotate(38.5 234.899 475.675)" fill="#0087DD" fill-opacity="0.1"/>
<rect x="651.236" y="-5.57092" width="17.4978" height="17.4674" transform="rotate(38.5 651.236 -5.57092)" fill="#0087DD" fill-opacity="0.1"/>
<rect x="636.014" y="13.567" width="17.4978" height="17.4674" transform="rotate(38.5 636.014 13.567)" fill="#0087DD" fill-opacity="0.1"/>
<rect x="620.791" y="32.7054" width="17.4978" height="17.4674" transform="rotate(38.5 620.791 32.7054)" fill="#0087DD" fill-opacity="0.1"/>
<rect x="605.568" y="51.8434" width="17.4978" height="17.4674" transform="rotate(38.5 605.568 51.8434)" fill="#0087DD" fill-opacity="0.1"/>
<rect x="590.345" y="70.981" width="17.4978" height="17.4674" transform="rotate(38.5 590.345 70.981)" fill="#0087DD" fill-opacity="0.1"/>
<rect x="575.122" y="90.1187" width="17.4978" height="17.4674" transform="rotate(38.5 575.122 90.1187)" fill="#0087DD" fill-opacity="0.1"/>
<rect x="559.899" y="109.257" width="17.4978" height="17.4674" transform="rotate(38.5 559.899 109.257)" fill="#0087DD" fill-opacity="0.1"/>
<rect x="544.676" y="128.394" width="17.4978" height="17.4674" transform="rotate(38.5 544.676 128.394)" fill="#0087DD" fill-opacity="0.1"/>
<rect x="529.453" y="147.532" width="17.4978" height="17.4674" transform="rotate(38.5 529.453 147.532)" fill="#0087DD" fill-opacity="0.1"/>
<rect x="514.23" y="166.67" width="17.4978" height="17.4674" transform="rotate(38.5 514.23 166.67)" fill="#0087DD" fill-opacity="0.1"/>
<rect x="499.007" y="185.808" width="17.4978" height="17.4674" transform="rotate(38.5 499.007 185.808)" fill="#0087DD" fill-opacity="0.1"/>
<rect x="483.784" y="204.946" width="17.4978" height="17.4674" transform="rotate(38.5 483.784 204.946)" fill="#0087DD" fill-opacity="0.1"/>
<rect x="468.561" y="224.084" width="17.4978" height="17.4674" transform="rotate(38.5 468.561 224.084)" fill="#0087DD" fill-opacity="0.1"/>
<rect x="453.338" y="243.222" width="17.4978" height="17.4674" transform="rotate(38.5 453.338 243.222)" fill="#0087DD" fill-opacity="0.1"/>
<rect x="438.115" y="262.359" width="17.4978" height="17.4674" transform="rotate(38.5 438.115 262.359)" fill="#0087DD" fill-opacity="0.1"/>
<rect x="422.892" y="281.497" width="17.4978" height="17.4674" transform="rotate(38.5 422.892 281.497)" fill="#0087DD" fill-opacity="0.1"/>
<rect x="407.669" y="300.636" width="17.4978" height="17.4674" transform="rotate(38.5 407.669 300.636)" fill="#0087DD" fill-opacity="0.1"/>
<rect x="392.446" y="319.773" width="17.4978" height="17.4674" transform="rotate(38.5 392.446 319.773)" fill="#0087DD" fill-opacity="0.1"/>
<rect x="377.223" y="338.911" width="17.4978" height="17.4674" transform="rotate(38.5 377.223 338.911)" fill="#0087DD" fill-opacity="0.1"/>
<rect x="362" y="358.049" width="17.4978" height="17.4674" transform="rotate(38.5 362 358.049)" fill="#0087DD" fill-opacity="0.1"/>
<rect x="346.777" y="377.187" width="17.4978" height="17.4674" transform="rotate(38.5 346.777 377.187)" fill="#0087DD" fill-opacity="0.1"/>
<rect x="331.554" y="396.325" width="17.4978" height="17.4674" transform="rotate(38.5 331.554 396.325)" fill="#0087DD" fill-opacity="0.1"/>
<rect x="316.332" y="415.463" width="17.4978" height="17.4674" transform="rotate(38.5 316.332 415.463)" fill="#0087DD" fill-opacity="0.1"/>
<rect x="301.108" y="434.601" width="17.4978" height="17.4674" transform="rotate(38.5 301.108 434.601)" fill="#0087DD" fill-opacity="0.1"/>
<rect x="285.886" y="453.739" width="17.4978" height="17.4674" transform="rotate(38.5 285.886 453.739)" fill="#0087DD" fill-opacity="0.1"/>
<rect x="270.663" y="472.877" width="17.4978" height="17.4674" transform="rotate(38.5 270.663 472.877)" fill="#0087DD" fill-opacity="0.1"/>
<rect x="687" y="-8.36963" width="17.4978" height="17.4674" transform="rotate(38.5 687 -8.36963)" fill="#0087DD" fill-opacity="0.1"/>
<rect x="671.777" y="10.7683" width="17.4978" height="17.4674" transform="rotate(38.5 671.777 10.7683)" fill="#0087DD" fill-opacity="0.1"/>
<rect x="656.555" y="29.9062" width="17.4978" height="17.4674" transform="rotate(38.5 656.555 29.9062)" fill="#0087DD" fill-opacity="0.1"/>
<rect x="641.332" y="49.0443" width="17.4978" height="17.4674" transform="rotate(38.5 641.332 49.0443)" fill="#0087DD" fill-opacity="0.1"/>
<rect x="626.108" y="68.1819" width="17.4978" height="17.4674" transform="rotate(38.5 626.108 68.1819)" fill="#0087DD" fill-opacity="0.1"/>
<rect x="610.886" y="87.3198" width="17.4978" height="17.4674" transform="rotate(38.5 610.886 87.3198)" fill="#0087DD" fill-opacity="0.1"/>
<rect x="595.663" y="106.458" width="17.4978" height="17.4674" transform="rotate(38.5 595.663 106.458)" fill="#0087DD" fill-opacity="0.1"/>
<rect x="580.439" y="125.595" width="17.4978" height="17.4674" transform="rotate(38.5 580.439 125.595)" fill="#0087DD" fill-opacity="0.1"/>
<rect x="565.217" y="144.733" width="17.4978" height="17.4674" transform="rotate(38.5 565.217 144.733)" fill="#0087DD" fill-opacity="0.1"/>
<rect x="549.994" y="163.871" width="17.4978" height="17.4674" transform="rotate(38.5 549.994 163.871)" fill="#0087DD" fill-opacity="0.1"/>
<rect x="534.771" y="183.009" width="17.4978" height="17.4674" transform="rotate(38.5 534.771 183.009)" fill="#0087DD" fill-opacity="0.1"/>
<rect x="519.548" y="202.147" width="17.4978" height="17.4674" transform="rotate(38.5 519.548 202.147)" fill="#0087DD" fill-opacity="0.1"/>
<rect x="504.325" y="221.285" width="17.4978" height="17.4674" transform="rotate(38.5 504.325 221.285)" fill="#0087DD" fill-opacity="0.1"/>
<rect x="489.102" y="240.423" width="17.4978" height="17.4674" transform="rotate(38.5 489.102 240.423)" fill="#0087DD" fill-opacity="0.1"/>
<rect x="473.879" y="259.561" width="17.4978" height="17.4674" transform="rotate(38.5 473.879 259.561)" fill="#0087DD" fill-opacity="0.1"/>
<rect x="458.656" y="278.698" width="17.4978" height="17.4674" transform="rotate(38.5 458.656 278.698)" fill="#0087DD" fill-opacity="0.1"/>
<rect x="443.433" y="297.836" width="17.4978" height="17.4674" transform="rotate(38.5 443.433 297.836)" fill="#0087DD" fill-opacity="0.1"/>
<rect x="428.21" y="316.974" width="17.4978" height="17.4674" transform="rotate(38.5 428.21 316.974)" fill="#0087DD" fill-opacity="0.1"/>
<rect x="412.987" y="336.112" width="17.4978" height="17.4674" transform="rotate(38.5 412.987 336.112)" fill="#0087DD" fill-opacity="0.1"/>
<rect x="397.764" y="355.25" width="17.4978" height="17.4674" transform="rotate(38.5 397.764 355.25)" fill="#0087DD" fill-opacity="0.1"/>
<rect x="382.542" y="374.388" width="17.4978" height="17.4674" transform="rotate(38.5 382.542 374.388)" fill="#0087DD" fill-opacity="0.1"/>
<rect x="367.318" y="393.526" width="17.4978" height="17.4674" transform="rotate(38.5 367.318 393.526)" fill="#0087DD" fill-opacity="0.1"/>
<rect x="352.095" y="412.664" width="17.4978" height="17.4674" transform="rotate(38.5 352.095 412.664)" fill="#0087DD" fill-opacity="0.1"/>
<rect x="336.873" y="431.802" width="17.4978" height="17.4674" transform="rotate(38.5 336.873 431.802)" fill="#0087DD" fill-opacity="0.1"/>
<rect x="321.649" y="450.94" width="17.4978" height="17.4674" transform="rotate(38.5 321.649 450.94)" fill="#0087DD" fill-opacity="0.1"/>
<rect x="306.427" y="470.077" width="17.4978" height="17.4674" transform="rotate(38.5 306.427 470.077)" fill="#0087DD" fill-opacity="0.1"/>
<rect x="291.204" y="489.215" width="17.4978" height="17.4674" transform="rotate(38.5 291.204 489.215)" fill="#0087DD" fill-opacity="0.1"/>
<rect x="707.541" y="7.96973" width="17.4978" height="17.4674" transform="rotate(38.5 707.541 7.96973)" fill="#0087DD" fill-opacity="0.1"/>
<rect x="692.318" y="27.1074" width="17.4978" height="17.4674" transform="rotate(38.5 692.318 27.1074)" fill="#0087DD" fill-opacity="0.1"/>
<rect x="677.095" y="46.2451" width="17.4978" height="17.4674" transform="rotate(38.5 677.095 46.2451)" fill="#0087DD" fill-opacity="0.1"/>
<rect x="661.872" y="65.3834" width="17.4978" height="17.4674" transform="rotate(38.5 661.872 65.3834)" fill="#0087DD" fill-opacity="0.1"/>
<rect x="646.649" y="84.5214" width="17.4978" height="17.4674" transform="rotate(38.5 646.649 84.5214)" fill="#0087DD" fill-opacity="0.1"/>
<rect x="631.426" y="103.659" width="17.4978" height="17.4674" transform="rotate(38.5 631.426 103.659)" fill="#0087DD" fill-opacity="0.1"/>
<rect x="616.204" y="122.797" width="17.4978" height="17.4674" transform="rotate(38.5 616.204 122.797)" fill="#0087DD" fill-opacity="0.1"/>
<rect x="600.98" y="141.935" width="17.4978" height="17.4674" transform="rotate(38.5 600.98 141.935)" fill="#0087DD" fill-opacity="0.1"/>
<rect x="585.758" y="161.073" width="17.4978" height="17.4674" transform="rotate(38.5 585.758 161.073)" fill="#0087DD" fill-opacity="0.1"/>
<rect x="570.535" y="180.211" width="17.4978" height="17.4674" transform="rotate(38.5 570.535 180.211)" fill="#0087DD" fill-opacity="0.1"/>
<rect x="555.312" y="199.349" width="17.4978" height="17.4674" transform="rotate(38.5 555.312 199.349)" fill="#0087DD" fill-opacity="0.1"/>
<rect x="540.089" y="218.486" width="17.4978" height="17.4674" transform="rotate(38.5 540.089 218.486)" fill="#0087DD" fill-opacity="0.1"/>
<rect x="524.866" y="237.624" width="17.4978" height="17.4674" transform="rotate(38.5 524.866 237.624)" fill="#0087DD" fill-opacity="0.1"/>
<rect x="509.643" y="256.762" width="17.4978" height="17.4674" transform="rotate(38.5 509.643 256.762)" fill="#0087DD" fill-opacity="0.1"/>
<rect x="494.42" y="275.9" width="17.4978" height="17.4674" transform="rotate(38.5 494.42 275.9)" fill="#0087DD" fill-opacity="0.1"/>
<rect x="479.197" y="295.038" width="17.4978" height="17.4674" transform="rotate(38.5 479.197 295.038)" fill="#0087DD" fill-opacity="0.1"/>
<rect x="463.974" y="314.176" width="17.4978" height="17.4674" transform="rotate(38.5 463.974 314.176)" fill="#0087DD" fill-opacity="0.1"/>
<rect x="448.751" y="333.314" width="17.4978" height="17.4674" transform="rotate(38.5 448.751 333.314)" fill="#0087DD" fill-opacity="0.1"/>
<rect x="433.528" y="352.452" width="17.4978" height="17.4674" transform="rotate(38.5 433.528 352.452)" fill="#0087DD" fill-opacity="0.1"/>
<rect x="418.305" y="371.589" width="17.4978" height="17.4674" transform="rotate(38.5 418.305 371.589)" fill="#0087DD" fill-opacity="0.1"/>
<rect x="403.082" y="390.727" width="17.4978" height="17.4674" transform="rotate(38.5 403.082 390.727)" fill="#0087DD" fill-opacity="0.1"/>
<rect x="387.859" y="409.865" width="17.4978" height="17.4674" transform="rotate(38.5 387.859 409.865)" fill="#0087DD" fill-opacity="0.1"/>
<rect x="372.636" y="429.003" width="17.4978" height="17.4674" transform="rotate(38.5 372.636 429.003)" fill="#0087DD" fill-opacity="0.1"/>
<rect x="357.413" y="448.141" width="17.4978" height="17.4674" transform="rotate(38.5 357.413 448.141)" fill="#0087DD" fill-opacity="0.1"/>
<rect x="342.19" y="467.279" width="17.4978" height="17.4674" transform="rotate(38.5 342.19 467.279)" fill="#0087DD" fill-opacity="0.1"/>
<rect x="326.967" y="486.417" width="17.4978" height="17.4674" transform="rotate(38.5 326.967 486.417)" fill="#0087DD" fill-opacity="0.1"/>
</svg>
