<svg width="50" height="50" viewBox="0 0 50 50" fill="none" xmlns="http://www.w3.org/2000/svg">
<path fill-rule="evenodd" clip-rule="evenodd" d="M19.0567 21.8L14.2645 9.34947C13.4577 7.25335 15.0049 5 17.2509 5H35.6426C37.8887 5 39.4359 7.25335 38.6291 9.34947L33.8369 21.8L44.4601 40.2C45.6918 42.3333 44.1522 45 41.6888 45H11.2048C8.74142 45 7.20181 42.3333 8.43349 40.2L19.0567 21.8Z" fill="#0575A5"/>
<line x1="18.8784" y1="21.3235" x2="33.9184" y2="21.3235" stroke="white" stroke-width="0.959999"/>
<line x1="30.877" y1="21.373" x2="30.237" y2="27.133" stroke="white" stroke-width="0.959999"/>
<line x1="32.1572" y1="21.907" x2="33.4372" y2="33.427" stroke="white" stroke-width="0.959999"/>
<ellipse cx="31.36" cy="21.3202" rx="1.6002" ry="1.6002" fill="white"/>
<path d="M0.5 16C0.5 13.1915 0.500389 11.1152 0.634581 9.47274C0.768297 7.83613 1.03237 6.67441 1.53544 5.68709C2.44624 3.89955 3.89955 2.44624 5.68709 1.53544C6.67441 1.03237 7.83613 0.768297 9.47274 0.634581C11.1152 0.500389 13.1915 0.5 16 0.5H34C36.8085 0.5 38.8848 0.500389 40.5273 0.634581C42.1639 0.768297 43.3256 1.03237 44.3129 1.53544C46.1004 2.44624 47.5538 3.89955 48.4646 5.68709C48.9676 6.67442 49.2317 7.83613 49.3654 9.47274C49.4996 11.1152 49.5 13.1915 49.5 16V34C49.5 36.8085 49.4996 38.8848 49.3654 40.5273C49.2317 42.1639 48.9676 43.3256 48.4646 44.3129C47.5538 46.1004 46.1004 47.5538 44.3129 48.4646C43.3256 48.9676 42.1639 49.2317 40.5273 49.3654C38.8848 49.4996 36.8085 49.5 34 49.5H16C13.1915 49.5 11.1152 49.4996 9.47274 49.3654C7.83613 49.2317 6.67442 48.9676 5.68709 48.4646C3.89955 47.5538 2.44624 46.1004 1.53544 44.3129C1.03237 43.3256 0.768297 42.1639 0.634581 40.5273C0.500389 38.8848 0.5 36.8085 0.5 34V16Z" stroke="#0575A5"/>
</svg>
