<svg width="50" height="50" viewBox="0 0 50 50" fill="none" xmlns="http://www.w3.org/2000/svg">
<path d="M0.5 16C0.5 13.1915 0.500389 11.1152 0.634581 9.47274C0.768297 7.83613 1.03237 6.67441 1.53544 5.68709C2.44624 3.89955 3.89955 2.44624 5.68709 1.53544C6.67441 1.03237 7.83613 0.768297 9.47274 0.634581C11.1152 0.500389 13.1915 0.5 16 0.5H34C36.8085 0.5 38.8848 0.500389 40.5273 0.634581C42.1639 0.768297 43.3256 1.03237 44.3129 1.53544C46.1004 2.44624 47.5538 3.89955 48.4646 5.68709C48.9676 6.67442 49.2317 7.83613 49.3654 9.47274C49.4996 11.1152 49.5 13.1915 49.5 16V34C49.5 36.8085 49.4996 38.8848 49.3654 40.5273C49.2317 42.1639 48.9676 43.3256 48.4646 44.3129C47.5538 46.1004 46.1004 47.5538 44.3129 48.4646C43.3256 48.9676 42.1639 49.2317 40.5273 49.3654C38.8848 49.4996 36.8085 49.5 34 49.5H16C13.1915 49.5 11.1152 49.4996 9.47274 49.3654C7.83613 49.2317 6.67442 48.9676 5.68709 48.4646C3.89955 47.5538 2.44624 46.1004 1.53544 44.3129C1.03237 43.3256 0.768297 42.1639 0.634581 40.5273C0.500389 38.8848 0.5 36.8085 0.5 34V16Z" stroke="#0575A5"/>
<path fill-rule="evenodd" clip-rule="evenodd" d="M10.1977 5.48805C10.1003 5.67926 10.1003 5.92956 10.1003 6.43017V17.7727L8.37799 19.2642C7.49655 20.0276 7.05583 20.4092 7.00886 20.7404C6.96635 21.0403 7.07857 21.3413 7.30702 21.5401C7.55935 21.7598 8.14237 21.7598 9.30841 21.7598H40.3894C41.5554 21.7598 42.1384 21.7598 42.3908 21.5401C42.6192 21.3413 42.7314 21.0403 42.6889 20.7404C42.6419 20.4092 42.2012 20.0276 41.3198 19.2642L39.5975 17.7727V6.43017C39.5975 5.92956 39.5975 5.67926 39.5001 5.48805C39.4144 5.31986 39.2776 5.18312 39.1095 5.09742C38.9182 5 38.6679 5 38.1673 5H11.5304C11.0298 5 10.7795 5 10.5883 5.09742C10.4201 5.18312 10.2834 5.31986 10.1977 5.48805Z" fill="#0575A5"/>
<rect x="11.4409" y="22.6536" width="26.8157" height="22.3464" rx="0.893855" fill="#0575A5"/>
<path d="M15.4634 34.7207C15.4634 33.4865 16.4639 32.486 17.698 32.486H22.6142C23.8484 32.486 24.8489 33.4865 24.8489 34.7207V45H15.4634V34.7207Z" fill="white"/>
<rect x="29.3179" y="26.2291" width="6.25699" height="4.46927" rx="0.893855" fill="white"/>
</svg>
