<svg width="50" height="50" viewBox="0 0 50 50" fill="none" xmlns="http://www.w3.org/2000/svg">
<path fill-rule="evenodd" clip-rule="evenodd" d="M20.8201 27.08C20.8201 24.9705 22.5302 23.2605 24.6396 23.2605C26.7491 23.2605 28.4592 24.9705 28.4592 27.08C28.4592 28.622 27.5454 29.9506 26.2298 30.5538C26.3645 30.3734 26.4441 30.1495 26.4441 29.9071L26.4441 29.065C26.4441 28.497 26.0067 28.0311 25.4504 27.9859C25.8672 27.7185 26.1435 27.2511 26.1435 26.7191C26.1435 25.8886 25.4702 25.2153 24.6397 25.2153C23.8092 25.2153 23.136 25.8886 23.136 26.7191C23.136 27.2511 23.4122 27.7185 23.829 27.9859C23.2726 28.031 22.8351 28.4969 22.8351 29.065V29.9071C22.8351 30.1495 22.9148 30.3734 23.0494 30.5538C21.7339 29.9506 20.8201 28.622 20.8201 27.08ZM24.6396 23.08C22.4305 23.08 20.6396 24.8709 20.6396 27.08C20.6396 29.2892 22.4305 31.08 24.6396 31.08C26.8488 31.08 28.6396 29.2892 28.6396 27.08C28.6396 24.8709 26.8488 23.08 24.6396 23.08Z" fill="#0575A5"/>
<path fill-rule="evenodd" clip-rule="evenodd" d="M30.0462 17.72C30.0462 16.2434 31.2433 15.0464 32.7199 15.0464C34.1965 15.0464 35.3936 16.2434 35.3936 17.72C35.3936 18.7995 34.7539 19.7295 33.8329 20.1518C33.9272 20.0254 33.983 19.8687 33.983 19.699V19.1095C33.983 18.7119 33.6768 18.3858 33.2874 18.3541C33.5792 18.167 33.7725 17.8398 33.7725 17.4674C33.7725 16.8861 33.3013 16.4148 32.7199 16.4148C32.1386 16.4148 31.6673 16.8861 31.6673 17.4674C31.6673 17.8398 31.8606 18.167 32.1524 18.3541C31.7629 18.3857 31.4567 18.7119 31.4567 19.1095V19.699C31.4567 19.8687 31.5125 20.0253 31.6067 20.1517C30.6858 19.7294 30.0462 18.7994 30.0462 17.72ZM32.7199 14.92C31.1735 14.92 29.9199 16.1736 29.9199 17.72C29.9199 19.2664 31.1735 20.52 32.7199 20.52C34.2663 20.52 35.5199 19.2664 35.5199 17.72C35.5199 16.1736 34.2663 14.92 32.7199 14.92Z" fill="#0575A5"/>
<path fill-rule="evenodd" clip-rule="evenodd" d="M13.8861 36.44C13.8861 34.9634 15.0831 33.7663 16.5598 33.7663C18.0364 33.7663 19.2334 34.9634 19.2334 36.44C19.2334 37.5192 18.594 38.4491 17.6733 38.8715C17.7675 38.7452 17.8232 38.5886 17.8232 38.419V37.8295C17.8232 37.4318 17.517 37.1057 17.1275 37.0741C17.4193 36.887 17.6127 36.5598 17.6127 36.1874C17.6127 35.606 17.1414 35.1347 16.56 35.1347C15.9787 35.1347 15.5074 35.606 15.5074 36.1874C15.5074 36.5598 15.7008 36.887 15.9926 37.0741C15.6031 37.1058 15.2969 37.4319 15.2969 37.8295V38.419C15.2969 38.5888 15.3527 38.7455 15.4471 38.8719C14.5259 38.4497 13.8861 37.5196 13.8861 36.44ZM16.5598 33.64C15.0134 33.64 13.7598 34.8936 13.7598 36.44C13.7598 37.9864 15.0134 39.24 16.5598 39.24C18.1061 39.24 19.3597 37.9864 19.3597 36.44C19.3597 34.8936 18.1061 33.64 16.5598 33.64Z" fill="#0575A5"/>
<path fill-rule="evenodd" clip-rule="evenodd" d="M30.0462 36.44C30.0462 34.9634 31.2433 33.7663 32.7199 33.7663C34.1965 33.7663 35.3936 34.9634 35.3936 36.44C35.3936 37.5195 34.7539 38.4495 33.833 38.8717C33.9272 38.7454 33.983 38.5887 33.983 38.419V37.8295C33.983 37.4319 33.6768 37.1057 33.2873 37.0741C33.5791 36.887 33.7724 36.5598 33.7724 36.1874C33.7724 35.606 33.3012 35.1348 32.7198 35.1348C32.1385 35.1348 31.6672 35.606 31.6672 36.1874C31.6672 36.5598 31.8605 36.887 32.1523 37.0741C31.7629 37.1058 31.4567 37.4319 31.4567 37.8295V38.419C31.4567 38.5887 31.5125 38.7453 31.6067 38.8716C30.6858 38.4494 30.0462 37.5194 30.0462 36.44ZM32.7199 33.64C31.1735 33.64 29.9199 34.8936 29.9199 36.44C29.9199 37.9864 31.1735 39.24 32.7199 39.24C34.2663 39.24 35.5199 37.9864 35.5199 36.44C35.5199 34.8936 34.2663 33.64 32.7199 33.64Z" fill="#0575A5"/>
<path fill-rule="evenodd" clip-rule="evenodd" d="M13.8861 17.72C13.8861 16.2433 15.0831 15.0463 16.5598 15.0463C18.0364 15.0463 19.2334 16.2433 19.2334 17.72C19.2334 18.7992 18.594 19.7291 17.6733 20.1514C17.7675 20.0252 17.8232 19.8685 17.8232 19.6989V19.1095C17.8232 18.7118 17.517 18.3857 17.1275 18.3541C17.4193 18.1669 17.6127 17.8397 17.6127 17.4674C17.6127 16.886 17.1414 16.4147 16.56 16.4147C15.9787 16.4147 15.5074 16.886 15.5074 17.4674C15.5074 17.8397 15.7008 18.1669 15.9926 18.3541C15.6031 18.3857 15.2969 18.7118 15.2969 19.1095V19.6989C15.2969 19.8687 15.3527 20.0255 15.4471 20.1518C14.5259 19.7297 13.8861 18.7996 13.8861 17.72ZM16.5598 14.92C15.0134 14.92 13.7598 16.1736 13.7598 17.72C13.7598 19.2664 15.0134 20.52 16.5598 20.52C18.1061 20.52 19.3597 19.2664 19.3597 17.72C19.3597 16.1736 18.1061 14.92 16.5598 14.92Z" fill="#0575A5"/>
<path fill-rule="evenodd" clip-rule="evenodd" d="M9.9921 43.4C9.9921 42.5562 10.6761 41.8722 11.5199 41.8722C12.3637 41.8722 13.0477 42.5562 13.0477 43.4C13.0477 44.0169 12.6821 44.5485 12.1556 44.7897C12.2095 44.7175 12.2415 44.6279 12.2415 44.5308V44.194C12.2415 43.9667 12.0664 43.7803 11.8438 43.7623C12.0105 43.6554 12.121 43.4684 12.121 43.2556C12.121 42.9234 11.8517 42.6541 11.5195 42.6541C11.1873 42.6541 10.918 42.9234 10.918 43.2556C10.918 43.4684 11.0285 43.6554 11.1952 43.7623C10.9728 43.7805 10.7979 43.9668 10.7979 44.194L10.7979 44.5308C10.7979 44.6277 10.8297 44.7172 10.8835 44.7893C10.3574 44.548 9.9921 44.0166 9.9921 43.4ZM11.5199 41.8C10.6363 41.8 9.91992 42.5163 9.91992 43.4C9.91992 44.2836 10.6363 45 11.5199 45C12.4036 45 13.1199 44.2836 13.1199 43.4C13.1199 42.5163 12.4036 41.8 11.5199 41.8Z" fill="#0575A5"/>
<path fill-rule="evenodd" clip-rule="evenodd" d="M20.0722 43.4C20.0722 42.5562 20.7562 41.8722 21.6 41.8722C22.4438 41.8722 23.1278 42.5562 23.1278 43.4C23.1278 44.0168 22.7623 44.5482 22.236 44.7895C22.2899 44.7173 22.3218 44.6278 22.3218 44.5308V44.194C22.3218 43.9668 22.1468 43.7804 21.9242 43.7623C22.091 43.6554 22.2015 43.4684 22.2015 43.2556C22.2015 42.9234 21.9322 42.6541 21.6 42.6541C21.2678 42.6541 20.9985 42.9234 20.9985 43.2556C20.9985 43.4684 21.109 43.6554 21.2757 43.7623C21.0531 43.7804 20.8782 43.9668 20.8782 44.194V44.5308C20.8782 44.6278 20.91 44.7173 20.9638 44.7895C20.4377 44.5482 20.0722 44.0168 20.0722 43.4ZM21.6 41.8C20.7163 41.8 20 42.5163 20 43.4C20 44.2836 20.7163 45 21.6 45C22.4836 45 23.2 44.2836 23.2 43.4C23.2 42.5163 22.4836 41.8 21.6 41.8Z" fill="#0575A5"/>
<path fill-rule="evenodd" clip-rule="evenodd" d="M26.1523 43.4C26.1523 42.5562 26.8363 41.8722 27.6801 41.8722C28.5239 41.8722 29.2079 42.5562 29.2079 43.4C29.2079 44.0167 28.8425 44.548 28.3164 44.7894C28.3702 44.7172 28.4021 44.6277 28.4021 44.5308V44.1939C28.4021 43.9666 28.2269 43.7802 28.0042 43.7623C28.1708 43.6553 28.2813 43.4684 28.2813 43.2556C28.2813 42.9234 28.012 42.6541 27.6798 42.6541C27.3476 42.6541 27.0783 42.9234 27.0783 43.2556C27.0783 43.4684 27.1888 43.6554 27.3555 43.7623C27.1332 43.7806 26.9585 43.9669 26.9585 44.1939V44.5308C26.9585 44.6278 26.9904 44.7175 27.0444 44.7897C26.5179 44.5485 26.1523 44.0169 26.1523 43.4ZM27.6801 41.8C26.7964 41.8 26.0801 42.5163 26.0801 43.4C26.0801 44.2836 26.7964 45 27.6801 45C28.5637 45 29.2801 44.2836 29.2801 43.4C29.2801 42.5163 28.5637 41.8 27.6801 41.8Z" fill="#0575A5"/>
<path fill-rule="evenodd" clip-rule="evenodd" d="M36.2323 43.4C36.2323 42.5562 36.9164 41.8722 37.7602 41.8722C38.6039 41.8722 39.288 42.5562 39.288 43.4C39.288 44.0169 38.9223 44.5484 38.396 44.7896C38.4498 44.7174 38.4818 44.6279 38.4818 44.5308V44.194C38.4818 43.9668 38.3068 43.7805 38.0843 43.7623C38.251 43.6554 38.3615 43.4684 38.3615 43.2556C38.3615 42.9234 38.0922 42.6541 37.76 42.6541C37.4278 42.6541 37.1585 42.9234 37.1585 43.2556C37.1585 43.4684 37.269 43.6554 37.4358 43.7623C37.2132 43.7804 37.0382 43.9667 37.0382 44.194V44.5308C37.0382 44.6277 37.07 44.7172 37.1237 44.7894C36.5977 44.548 36.2323 44.0167 36.2323 43.4ZM37.7602 41.8C36.8765 41.8 36.1602 42.5163 36.1602 43.4C36.1602 44.2836 36.8765 45 37.7602 45C38.6438 45 39.3601 44.2836 39.3601 43.4C39.3601 42.5163 38.6438 41.8 37.7602 41.8Z" fill="#0575A5"/>
<path fill-rule="evenodd" clip-rule="evenodd" d="M31.1122 29.48C31.1122 28.6362 31.7962 27.9522 32.64 27.9522C33.4838 27.9522 34.1678 28.6362 34.1678 29.48C34.1678 30.0967 33.8025 30.628 33.2764 30.8694C33.3302 30.7972 33.362 30.7078 33.362 30.6108V30.274C33.362 30.0468 33.187 29.8604 32.9645 29.8423C33.1312 29.7354 33.2417 29.5484 33.2417 29.3356C33.2417 29.0034 32.9724 28.7341 32.6402 28.7341C32.308 28.7341 32.0387 29.0034 32.0387 29.3356C32.0387 29.5484 32.1492 29.7354 32.316 29.8423C32.0934 29.8604 31.9184 30.0468 31.9184 30.274V30.6108C31.9184 30.7079 31.9503 30.7974 32.0042 30.8696C31.4778 30.6284 31.1122 30.0969 31.1122 29.48ZM32.64 27.88C31.7564 27.88 31.04 28.5963 31.04 29.48C31.04 30.3637 31.7564 31.08 32.64 31.08C33.5237 31.08 34.24 30.3637 34.24 29.48C34.24 28.5963 33.5237 27.88 32.64 27.88Z" fill="#0575A5"/>
<path fill-rule="evenodd" clip-rule="evenodd" d="M36.8725 24.68C36.8725 23.8362 37.5565 23.1522 38.4003 23.1522C39.2441 23.1522 39.9281 23.8362 39.9281 24.68C39.9281 25.2968 39.5626 25.8283 39.0363 26.0696C39.0902 25.9974 39.1221 25.9078 39.1221 25.8109V25.474C39.1221 25.2469 38.9472 25.0606 38.7248 25.0424C38.8916 24.9355 39.0021 24.7485 39.0021 24.5357C39.0021 24.2035 38.7328 23.9342 38.4006 23.9342C38.0684 23.9342 37.7991 24.2035 37.7991 24.5357C37.7991 24.7484 37.9096 24.9354 38.0763 25.0423C37.8536 25.0603 37.6784 25.2467 37.6784 25.474V25.8109C37.6784 25.9078 37.7103 25.9973 37.7641 26.0695C37.2379 25.8282 36.8725 25.2968 36.8725 24.68ZM38.4003 23.08C37.5166 23.08 36.8003 23.7964 36.8003 24.68C36.8003 25.5637 37.5166 26.28 38.4003 26.28C39.2839 26.28 40.0003 25.5637 40.0003 24.68C40.0003 23.7964 39.2839 23.08 38.4003 23.08Z" fill="#0575A5"/>
<path fill-rule="evenodd" clip-rule="evenodd" d="M15.1122 29.48C15.1122 28.6362 15.7962 27.9522 16.64 27.9522C17.4838 27.9522 18.1678 28.6362 18.1678 29.48C18.1678 30.0969 17.8022 30.6285 17.2758 30.8697C17.3297 30.7975 17.3616 30.7079 17.3616 30.6109V30.274C17.3616 30.0468 17.1866 29.8605 16.9641 29.8424C17.1308 29.7354 17.2413 29.5485 17.2413 29.3357C17.2413 29.0035 16.972 28.7342 16.6398 28.7342C16.3076 28.7342 16.0383 29.0035 16.0383 29.3357C16.0383 29.5485 16.1488 29.7354 16.3155 29.8424C16.093 29.8604 15.918 30.0468 15.918 30.274L15.918 30.6109C15.918 30.7077 15.9498 30.7972 16.0035 30.8693C15.4775 30.628 15.1122 30.0966 15.1122 29.48ZM16.64 27.88C15.7564 27.88 15.04 28.5963 15.04 29.48C15.04 30.3637 15.7564 31.08 16.64 31.08C17.5237 31.08 18.24 30.3637 18.24 29.48C18.24 28.5963 17.5237 27.88 16.64 27.88Z" fill="#0575A5"/>
<path fill-rule="evenodd" clip-rule="evenodd" d="M8.07218 24.68C8.07218 23.8362 8.75621 23.1522 9.59999 23.1522C10.4438 23.1522 11.1278 23.8362 11.1278 24.68C11.1278 25.2968 10.7623 25.8283 10.236 26.0696C10.2899 25.9974 10.3218 25.9078 10.3218 25.8108V25.474C10.3218 25.2467 10.1467 25.0604 9.92409 25.0423C10.0908 24.9354 10.2013 24.7484 10.2013 24.5357C10.2013 24.2035 9.932 23.9342 9.5998 23.9342C9.2676 23.9342 8.9983 24.2035 8.9983 24.5357C8.9983 24.7485 9.1088 24.9354 9.27555 25.0424C9.05306 25.0605 8.87815 25.2468 8.87815 25.474L8.87815 25.8108C8.87815 25.9078 8.91002 25.9973 8.96385 26.0695C8.43765 25.8282 8.07218 25.2968 8.07218 24.68ZM9.59999 23.08C8.71634 23.08 8 23.7964 8 24.68C8 25.5637 8.71634 26.28 9.59999 26.28C10.4836 26.28 11.2 25.5637 11.2 24.68C11.2 23.7964 10.4836 23.08 9.59999 23.08Z" fill="#0575A5"/>
<path fill-rule="evenodd" clip-rule="evenodd" d="M21.9926 6.6C21.9926 5.75621 22.6766 5.07218 23.5204 5.07218C24.3642 5.07218 25.0482 5.75621 25.0482 6.6C25.0482 7.21681 24.6827 7.74825 24.1565 7.98953C24.2103 7.91735 24.2422 7.82782 24.2422 7.73085V7.394C24.2422 7.16678 24.0672 6.98044 23.8446 6.96236C24.0114 6.85543 24.1219 6.66844 24.1219 6.45565C24.1219 6.12345 23.8526 5.85414 23.5204 5.85414C23.1882 5.85414 22.9189 6.12345 22.9189 6.45565C22.9189 6.66844 23.0294 6.85543 23.1961 6.96236C22.9736 6.98043 22.7986 7.16678 22.7986 7.394V7.73085C22.7986 7.8278 22.8304 7.91731 22.8842 7.98948C22.3581 7.74818 21.9926 7.21677 21.9926 6.6ZM23.5204 5C22.6368 5 21.9204 5.71634 21.9204 6.6C21.9204 7.48366 22.6368 8.2 23.5204 8.2C24.4041 8.2 25.1204 7.48366 25.1204 6.6C25.1204 5.71634 24.4041 5 23.5204 5Z" fill="#0575A5"/>
<path fill-rule="evenodd" clip-rule="evenodd" d="M38.1523 10.76C38.1523 9.91618 38.8363 9.23215 39.6801 9.23215C40.5239 9.23215 41.2079 9.91618 41.2079 10.76C41.2079 11.3768 40.8424 11.9082 40.3161 12.1495C40.37 12.0773 40.4018 11.9878 40.4018 11.8908V11.554C40.4018 11.3267 40.2269 11.1404 40.0043 11.1223C40.171 11.0154 40.2815 10.8284 40.2815 10.6156C40.2815 10.2834 40.0122 10.0141 39.68 10.0141C39.3478 10.0141 39.0785 10.2834 39.0785 10.6156C39.0785 10.8284 39.189 11.0154 39.3557 11.1223C39.1332 11.1404 38.9582 11.3267 38.9582 11.554V11.8908C38.9582 11.9878 38.9901 12.0773 39.0439 12.1495C38.5177 11.9082 38.1523 11.3768 38.1523 10.76ZM39.6801 9.15997C38.7964 9.15997 38.0801 9.87632 38.0801 10.76C38.0801 11.6436 38.7964 12.36 39.6801 12.36C40.5637 12.36 41.2801 11.6436 41.2801 10.76C41.2801 9.87632 40.5637 9.15997 39.6801 9.15997Z" fill="#0575A5"/>
<path fill-rule="evenodd" clip-rule="evenodd" d="M25.5121 10.76C25.5121 9.91618 26.1961 9.23215 27.0399 9.23215C27.8837 9.23215 28.5677 9.91618 28.5677 10.76C28.5677 11.3768 28.2022 11.9082 27.676 12.1495C27.7298 12.0773 27.7617 11.9878 27.7617 11.8908V11.554C27.7617 11.3268 27.5867 11.1404 27.3642 11.1223C27.5309 11.0154 27.6414 10.8284 27.6414 10.6156C27.6414 10.2834 27.3721 10.0141 27.0399 10.0141C26.7077 10.0141 26.4384 10.2834 26.4384 10.6156C26.4384 10.8284 26.5489 11.0154 26.7156 11.1223C26.4931 11.1404 26.3181 11.3267 26.3181 11.554V11.8908C26.3181 11.9878 26.35 12.0773 26.4038 12.1495C25.8776 11.9082 25.5121 11.3767 25.5121 10.76ZM27.0399 9.15997C26.1563 9.15997 25.4399 9.87632 25.4399 10.76C25.4399 11.6436 26.1563 12.36 27.0399 12.36C27.9236 12.36 28.6399 11.6436 28.6399 10.76C28.6399 9.87632 27.9236 9.15997 27.0399 9.15997Z" fill="#0575A5"/>
<path fill-rule="evenodd" clip-rule="evenodd" d="M8.39249 10.76C8.39249 9.91624 9.07652 9.23221 9.92031 9.23221C10.7641 9.23221 11.4481 9.91624 11.4481 10.76C11.4481 11.3769 11.0826 11.9083 10.5563 12.1496C10.6102 12.0774 10.6421 11.9879 10.6421 11.8909V11.554C10.6421 11.3268 10.4671 11.1405 10.2446 11.1224C10.4114 11.0155 10.5219 10.8285 10.5219 10.6157C10.5219 10.2835 10.2526 10.0142 9.92038 10.0142C9.58818 10.0142 9.31887 10.2835 9.31887 10.6157C9.31887 10.8285 9.42936 11.0154 9.5961 11.1224C9.37349 11.1404 9.19847 11.3268 9.19847 11.554L9.19847 11.8909C9.19847 11.9878 9.23033 12.0773 9.28416 12.1495C8.75796 11.9082 8.39249 11.3768 8.39249 10.76ZM9.92031 9.16003C9.03665 9.16003 8.32031 9.87638 8.32031 10.76C8.32031 11.6437 9.03665 12.36 9.92031 12.36C10.804 12.36 11.5203 11.6437 11.5203 10.76C11.5203 9.87638 10.804 9.16003 9.92031 9.16003Z" fill="#0575A5"/>
<path d="M21.2324 24.2391L18.1471 20.5621" stroke="#0575A5" stroke-width="0.16" stroke-dasharray="0.32 0.32"/>
<path d="M14.2856 15.717L11.2003 12.04" stroke="#0575A5" stroke-width="0.16" stroke-dasharray="0.32 0.32"/>
<path d="M30.9033 20.5551L27.818 24.2321" stroke="#0575A5" stroke-width="0.16" stroke-dasharray="0.32 0.32"/>
<path d="M30.9253 33.797L27.8399 30.12" stroke="#0575A5" stroke-width="0.16" stroke-dasharray="0.32 0.32"/>
<path d="M25.5781 12.04L19.6803 16.1697" stroke="#0575A5" stroke-width="0.16" stroke-dasharray="0.32 0.32"/>
<path d="M32.8003 33.32L32.8003 31.08" stroke="#0575A5" stroke-width="0.16" stroke-dasharray="0.32 0.32"/>
<path d="M16.6401 33.32L16.6401 31.08" stroke="#0575A5" stroke-width="0.16" stroke-dasharray="0.32 0.32"/>
<path d="M14.9722 29.5132L11.0403 26.76" stroke="#0575A5" stroke-width="0.16" stroke-dasharray="0.32 0.32"/>
<path d="M36.6172 41.6913L34.5603 39.24" stroke="#0575A5" stroke-width="0.16" stroke-dasharray="0.32 0.32"/>
<path d="M36.7769 23.1313L34.7199 20.68" stroke="#0575A5" stroke-width="0.16" stroke-dasharray="0.32 0.32"/>
<path d="M30.5371 14.9713L28.4802 12.52" stroke="#0575A5" stroke-width="0.16" stroke-dasharray="0.32 0.32"/>
<path d="M25.7144 9.67078L24.4802 8.19997" stroke="#0575A5" stroke-width="0.16" stroke-dasharray="0.32 0.32"/>
<path d="M20.7769 41.6913L18.7199 39.24" stroke="#0575A5" stroke-width="0.16" stroke-dasharray="0.32 0.32"/>
<path d="M31.0171 39.24L28.9602 41.6913" stroke="#0575A5" stroke-width="0.16" stroke-dasharray="0.32 0.32"/>
<path d="M37.7368 12.52L35.2685 15.4616" stroke="#0575A5" stroke-width="0.16" stroke-dasharray="0.32 0.32"/>
<path d="M14.2173 39.24L12.1604 41.6913" stroke="#0575A5" stroke-width="0.16" stroke-dasharray="0.32 0.32"/>
<path d="M21.6455 30.12L18.5601 33.797" stroke="#0575A5" stroke-width="0.16" stroke-dasharray="0.32 0.32"/>
<path d="M36.7085 26.28L34.2402 29.2216" stroke="#0575A5" stroke-width="0.16" stroke-dasharray="0.32 0.32"/>
<path d="M14.2856 20.2L11.2003 23.877" stroke="#0575A5" stroke-width="0.16" stroke-dasharray="0.32 0.32"/>
<path d="M0.5 16C0.5 13.1915 0.500389 11.1152 0.634581 9.47274C0.768297 7.83613 1.03237 6.67441 1.53544 5.68709C2.44624 3.89955 3.89955 2.44624 5.68709 1.53544C6.67441 1.03237 7.83613 0.768297 9.47274 0.634581C11.1152 0.500389 13.1915 0.5 16 0.5H34C36.8085 0.5 38.8848 0.500389 40.5273 0.634581C42.1639 0.768297 43.3256 1.03237 44.3129 1.53544C46.1004 2.44624 47.5538 3.89955 48.4646 5.68709C48.9676 6.67442 49.2317 7.83613 49.3654 9.47274C49.4996 11.1152 49.5 13.1915 49.5 16V34C49.5 36.8085 49.4996 38.8848 49.3654 40.5273C49.2317 42.1639 48.9676 43.3256 48.4646 44.3129C47.5538 46.1004 46.1004 47.5538 44.3129 48.4646C43.3256 48.9676 42.1639 49.2317 40.5273 49.3654C38.8848 49.4996 36.8085 49.5 34 49.5H16C13.1915 49.5 11.1152 49.4996 9.47274 49.3654C7.83613 49.2317 6.67442 48.9676 5.68709 48.4646C3.89955 47.5538 2.44624 46.1004 1.53544 44.3129C1.03237 43.3256 0.768297 42.1639 0.634581 40.5273C0.500389 38.8848 0.5 36.8085 0.5 34V16Z" stroke="#0575A5"/>
</svg>
