<svg width="139" height="49" viewBox="0 0 139 49" fill="none" xmlns="http://www.w3.org/2000/svg">
<rect width="139" height="49" rx="7.11889" fill="#001B2C"/>
<path d="M29.3754 27.5327L26.9266 25.1249L17.937 33.9897L29.3754 27.5327Z" fill="white"/>
<path d="M29.3754 20.9783L17.937 14.5212L26.9266 23.3861L29.3754 20.9783Z" fill="white"/>
<path d="M32.9599 25.4727C33.693 24.9002 33.693 23.61 32.9112 23.0375L30.5119 21.6721L27.835 24.256L30.5119 26.8398L32.9599 25.4727Z" fill="white"/>
<path d="M15.59 34.5066L26.0433 24.2516L15.59 14.0009V14C15.0611 14.2726 14.7065 14.769 14.7065 15.4141V33.0925C14.7065 33.7376 15.0611 34.2341 15.59 34.5066Z" fill="white"/>
<path d="M45.94 13.03C46.7 13.03 47.3567 13.1733 47.91 13.46C48.47 13.74 48.8967 14.1433 49.19 14.67C49.49 15.1967 49.64 15.8167 49.64 16.53C49.64 17.2433 49.49 17.8633 49.19 18.39C48.8967 18.91 48.47 19.31 47.91 19.59C47.3567 19.8633 46.7 20 45.94 20H43.77V13.03H45.94ZM45.94 19.25C46.84 19.25 47.5267 19.0133 48 18.54C48.4733 18.06 48.71 17.39 48.71 16.53C48.71 15.6633 48.47 14.9867 47.99 14.5C47.5167 14.0133 46.8333 13.77 45.94 13.77H44.68V19.25H45.94ZM53.2303 20.09C52.717 20.09 52.2503 19.9733 51.8303 19.74C51.417 19.5067 51.0903 19.1767 50.8503 18.75C50.617 18.3167 50.5003 17.8167 50.5003 17.25C50.5003 16.69 50.6203 16.1967 50.8603 15.77C51.107 15.3367 51.4403 15.0067 51.8603 14.78C52.2803 14.5467 52.7503 14.43 53.2703 14.43C53.7903 14.43 54.2603 14.5467 54.6803 14.78C55.1003 15.0067 55.4303 15.3333 55.6703 15.76C55.917 16.1867 56.0403 16.6833 56.0403 17.25C56.0403 17.8167 55.9136 18.3167 55.6603 18.75C55.4136 19.1767 55.077 19.5067 54.6503 19.74C54.2236 19.9733 53.7503 20.09 53.2303 20.09ZM53.2303 19.29C53.557 19.29 53.8636 19.2133 54.1503 19.06C54.437 18.9067 54.667 18.6767 54.8403 18.37C55.0203 18.0633 55.1103 17.69 55.1103 17.25C55.1103 16.81 55.0236 16.4367 54.8503 16.13C54.677 15.8233 54.4503 15.5967 54.1703 15.45C53.8903 15.2967 53.587 15.22 53.2603 15.22C52.927 15.22 52.6203 15.2967 52.3403 15.45C52.067 15.5967 51.847 15.8233 51.6803 16.13C51.5136 16.4367 51.4303 16.81 51.4303 17.25C51.4303 17.6967 51.5103 18.0733 51.6703 18.38C51.837 18.6867 52.057 18.9167 52.3303 19.07C52.6036 19.2167 52.9036 19.29 53.2303 19.29ZM64.5368 14.52L62.8268 20H61.8868L60.5668 15.65L59.2468 20H58.3068L56.5868 14.52H57.5168L58.7768 19.12L60.1368 14.52H61.0668L62.3968 19.13L63.6368 14.52H64.5368ZM68.1099 14.42C68.7766 14.42 69.3166 14.6233 69.7299 15.03C70.1433 15.43 70.3499 16.01 70.3499 16.77V20H69.4499V16.9C69.4499 16.3533 69.3133 15.9367 69.0399 15.65C68.7666 15.3567 68.3933 15.21 67.9199 15.21C67.4399 15.21 67.0566 15.36 66.7699 15.66C66.4899 15.96 66.3499 16.3967 66.3499 16.97V20H65.4399V14.52H66.3499V15.3C66.5299 15.02 66.7733 14.8033 67.0799 14.65C67.3933 14.4967 67.7366 14.42 68.1099 14.42ZM72.7464 12.6V20H71.8364V12.6H72.7464ZM76.6873 20.09C76.174 20.09 75.7073 19.9733 75.2873 19.74C74.874 19.5067 74.5473 19.1767 74.3073 18.75C74.074 18.3167 73.9573 17.8167 73.9573 17.25C73.9573 16.69 74.0773 16.1967 74.3173 15.77C74.564 15.3367 74.8973 15.0067 75.3173 14.78C75.7373 14.5467 76.2073 14.43 76.7273 14.43C77.2473 14.43 77.7173 14.5467 78.1373 14.78C78.5573 15.0067 78.8873 15.3333 79.1273 15.76C79.374 16.1867 79.4973 16.6833 79.4973 17.25C79.4973 17.8167 79.3707 18.3167 79.1173 18.75C78.8707 19.1767 78.534 19.5067 78.1073 19.74C77.6807 19.9733 77.2073 20.09 76.6873 20.09ZM76.6873 19.29C77.014 19.29 77.3207 19.2133 77.6073 19.06C77.894 18.9067 78.124 18.6767 78.2973 18.37C78.4773 18.0633 78.5673 17.69 78.5673 17.25C78.5673 16.81 78.4807 16.4367 78.3073 16.13C78.134 15.8233 77.9073 15.5967 77.6273 15.45C77.3473 15.2967 77.044 15.22 76.7173 15.22C76.384 15.22 76.0773 15.2967 75.7973 15.45C75.524 15.5967 75.304 15.8233 75.1373 16.13C74.9707 16.4367 74.8873 16.81 74.8873 17.25C74.8873 17.6967 74.9673 18.0733 75.1273 18.38C75.294 18.6867 75.514 18.9167 75.7873 19.07C76.0607 19.2167 76.3607 19.29 76.6873 19.29ZM80.3538 17.24C80.3538 16.68 80.4672 16.19 80.6938 15.77C80.9205 15.3433 81.2305 15.0133 81.6238 14.78C82.0238 14.5467 82.4672 14.43 82.9538 14.43C83.4338 14.43 83.8505 14.5333 84.2038 14.74C84.5572 14.9467 84.8205 15.2067 84.9938 15.52V14.52H85.9138V20H84.9938V18.98C84.8138 19.3 84.5438 19.5667 84.1838 19.78C83.8305 19.9867 83.4172 20.09 82.9438 20.09C82.4572 20.09 82.0172 19.97 81.6238 19.73C81.2305 19.49 80.9205 19.1533 80.6938 18.72C80.4672 18.2867 80.3538 17.7933 80.3538 17.24ZM84.9938 17.25C84.9938 16.8367 84.9105 16.4767 84.7438 16.17C84.5772 15.8633 84.3505 15.63 84.0638 15.47C83.7838 15.3033 83.4738 15.22 83.1338 15.22C82.7938 15.22 82.4838 15.3 82.2038 15.46C81.9238 15.62 81.7005 15.8533 81.5338 16.16C81.3672 16.4667 81.2838 16.8267 81.2838 17.24C81.2838 17.66 81.3672 18.0267 81.5338 18.34C81.7005 18.6467 81.9238 18.8833 82.2038 19.05C82.4838 19.21 82.7938 19.29 83.1338 19.29C83.4738 19.29 83.7838 19.21 84.0638 19.05C84.3505 18.8833 84.5772 18.6467 84.7438 18.34C84.9105 18.0267 84.9938 17.6633 84.9938 17.25ZM87.1116 17.24C87.1116 16.68 87.225 16.19 87.4516 15.77C87.6783 15.3433 87.9883 15.0133 88.3816 14.78C88.7816 14.5467 89.2283 14.43 89.7216 14.43C90.1483 14.43 90.545 14.53 90.9116 14.73C91.2783 14.9233 91.5583 15.18 91.7516 15.5V12.6H92.6716V20H91.7516V18.97C91.5716 19.2967 91.305 19.5667 90.9516 19.78C90.5983 19.9867 90.185 20.09 89.7116 20.09C89.225 20.09 88.7816 19.97 88.3816 19.73C87.9883 19.49 87.6783 19.1533 87.4516 18.72C87.225 18.2867 87.1116 17.7933 87.1116 17.24ZM91.7516 17.25C91.7516 16.8367 91.6683 16.4767 91.5016 16.17C91.335 15.8633 91.1083 15.63 90.8216 15.47C90.5416 15.3033 90.2316 15.22 89.8916 15.22C89.5516 15.22 89.2416 15.3 88.9616 15.46C88.6816 15.62 88.4583 15.8533 88.2916 16.16C88.125 16.4667 88.0416 16.8267 88.0416 17.24C88.0416 17.66 88.125 18.0267 88.2916 18.34C88.4583 18.6467 88.6816 18.8833 88.9616 19.05C89.2416 19.21 89.5516 19.29 89.8916 19.29C90.2316 19.29 90.5416 19.21 90.8216 19.05C91.1083 18.8833 91.335 18.6467 91.5016 18.34C91.6683 18.0267 91.7516 17.6633 91.7516 17.25ZM99.2655 20.09C98.7521 20.09 98.2855 19.9733 97.8655 19.74C97.4521 19.5067 97.1255 19.1767 96.8855 18.75C96.6521 18.3167 96.5355 17.8167 96.5355 17.25C96.5355 16.69 96.6555 16.1967 96.8955 15.77C97.1421 15.3367 97.4755 15.0067 97.8955 14.78C98.3155 14.5467 98.7855 14.43 99.3055 14.43C99.8255 14.43 100.295 14.5467 100.715 14.78C101.135 15.0067 101.465 15.3333 101.705 15.76C101.952 16.1867 102.075 16.6833 102.075 17.25C102.075 17.8167 101.949 18.3167 101.695 18.75C101.449 19.1767 101.112 19.5067 100.685 19.74C100.259 19.9733 99.7855 20.09 99.2655 20.09ZM99.2655 19.29C99.5921 19.29 99.8988 19.2133 100.185 19.06C100.472 18.9067 100.702 18.6767 100.875 18.37C101.055 18.0633 101.145 17.69 101.145 17.25C101.145 16.81 101.059 16.4367 100.885 16.13C100.712 15.8233 100.485 15.5967 100.205 15.45C99.9255 15.2967 99.6221 15.22 99.2955 15.22C98.9621 15.22 98.6555 15.2967 98.3755 15.45C98.1021 15.5967 97.8821 15.8233 97.7155 16.13C97.5488 16.4367 97.4655 16.81 97.4655 17.25C97.4655 17.6967 97.5455 18.0733 97.7055 18.38C97.8721 18.6867 98.0921 18.9167 98.3655 19.07C98.6388 19.2167 98.9388 19.29 99.2655 19.29ZM105.942 14.42C106.609 14.42 107.149 14.6233 107.562 15.03C107.975 15.43 108.182 16.01 108.182 16.77V20H107.282V16.9C107.282 16.3533 107.145 15.9367 106.872 15.65C106.599 15.3567 106.225 15.21 105.752 15.21C105.272 15.21 104.889 15.36 104.602 15.66C104.322 15.96 104.182 16.3967 104.182 16.97V20H103.272V14.52H104.182V15.3C104.362 15.02 104.605 14.8033 104.912 14.65C105.225 14.4967 105.569 14.42 105.942 14.42Z" fill="white"/>
<path d="M49.9281 32.144C49.7361 31.792 49.4721 31.524 49.1361 31.34C48.8001 31.156 48.4081 31.064 47.9601 31.064C47.4641 31.064 47.0241 31.176 46.6401 31.4C46.2561 31.624 45.9561 31.944 45.7401 32.36C45.5241 32.776 45.4161 33.256 45.4161 33.8C45.4161 34.36 45.5241 34.848 45.7401 35.264C45.9641 35.68 46.2721 36 46.6641 36.224C47.0561 36.448 47.5121 36.56 48.0321 36.56C48.6721 36.56 49.1961 36.392 49.6041 36.056C50.0121 35.712 50.2801 35.236 50.4081 34.628H47.5281V33.344H52.0641V34.808C51.9521 35.392 51.7121 35.932 51.3441 36.428C50.9761 36.924 50.5001 37.324 49.9161 37.628C49.3401 37.924 48.6921 38.072 47.9721 38.072C47.1641 38.072 46.4321 37.892 45.7761 37.532C45.1281 37.164 44.6161 36.656 44.2401 36.008C43.8721 35.36 43.6881 34.624 43.6881 33.8C43.6881 32.976 43.8721 32.24 44.2401 31.592C44.6161 30.936 45.1281 30.428 45.7761 30.068C46.4321 29.7 47.1601 29.516 47.9601 29.516C48.9041 29.516 49.7241 29.748 50.4201 30.212C51.1161 30.668 51.5961 31.312 51.8601 32.144H49.9281ZM56.259 38.108C55.619 38.108 55.043 37.968 54.531 37.688C54.019 37.4 53.615 36.996 53.319 36.476C53.031 35.956 52.887 35.356 52.887 34.676C52.887 33.996 53.035 33.396 53.331 32.876C53.635 32.356 54.047 31.956 54.567 31.676C55.087 31.388 55.667 31.244 56.307 31.244C56.947 31.244 57.527 31.388 58.047 31.676C58.567 31.956 58.975 32.356 59.271 32.876C59.575 33.396 59.727 33.996 59.727 34.676C59.727 35.356 59.571 35.956 59.259 36.476C58.955 36.996 58.539 37.4 58.011 37.688C57.491 37.968 56.907 38.108 56.259 38.108ZM56.259 36.644C56.563 36.644 56.847 36.572 57.111 36.428C57.383 36.276 57.599 36.052 57.759 35.756C57.919 35.46 57.999 35.1 57.999 34.676C57.999 34.044 57.831 33.56 57.495 33.224C57.167 32.88 56.763 32.708 56.283 32.708C55.803 32.708 55.399 32.88 55.071 33.224C54.751 33.56 54.591 34.044 54.591 34.676C54.591 35.308 54.747 35.796 55.059 36.14C55.379 36.476 55.779 36.644 56.259 36.644ZM63.9113 38.108C63.2713 38.108 62.6953 37.968 62.1833 37.688C61.6713 37.4 61.2673 36.996 60.9713 36.476C60.6833 35.956 60.5393 35.356 60.5393 34.676C60.5393 33.996 60.6873 33.396 60.9833 32.876C61.2873 32.356 61.6993 31.956 62.2193 31.676C62.7393 31.388 63.3193 31.244 63.9593 31.244C64.5993 31.244 65.1793 31.388 65.6993 31.676C66.2193 31.956 66.6273 32.356 66.9233 32.876C67.2273 33.396 67.3793 33.996 67.3793 34.676C67.3793 35.356 67.2233 35.956 66.9113 36.476C66.6073 36.996 66.1913 37.4 65.6633 37.688C65.1433 37.968 64.5593 38.108 63.9113 38.108ZM63.9113 36.644C64.2153 36.644 64.4993 36.572 64.7633 36.428C65.0353 36.276 65.2513 36.052 65.4113 35.756C65.5713 35.46 65.6513 35.1 65.6513 34.676C65.6513 34.044 65.4833 33.56 65.1473 33.224C64.8193 32.88 64.4153 32.708 63.9353 32.708C63.4553 32.708 63.0513 32.88 62.7233 33.224C62.4033 33.56 62.2433 34.044 62.2433 34.676C62.2433 35.308 62.3993 35.796 62.7113 36.14C63.0313 36.476 63.4313 36.644 63.9113 36.644ZM71.2157 31.244C71.7117 31.244 72.1477 31.344 72.5237 31.544C72.8997 31.736 73.1957 31.988 73.4117 32.3V31.352H75.1037V38.048C75.1037 38.664 74.9797 39.212 74.7317 39.692C74.4837 40.18 74.1117 40.564 73.6157 40.844C73.1197 41.132 72.5197 41.276 71.8157 41.276C70.8717 41.276 70.0957 41.056 69.4877 40.616C68.8877 40.176 68.5477 39.576 68.4677 38.816H70.1357C70.2237 39.12 70.4117 39.36 70.6997 39.536C70.9957 39.72 71.3517 39.812 71.7677 39.812C72.2557 39.812 72.6517 39.664 72.9557 39.368C73.2597 39.08 73.4117 38.64 73.4117 38.048V37.016C73.1957 37.328 72.8957 37.588 72.5117 37.796C72.1357 38.004 71.7037 38.108 71.2157 38.108C70.6557 38.108 70.1437 37.964 69.6797 37.676C69.2157 37.388 68.8477 36.984 68.5757 36.464C68.3117 35.936 68.1797 35.332 68.1797 34.652C68.1797 33.98 68.3117 33.384 68.5757 32.864C68.8477 32.344 69.2117 31.944 69.6677 31.664C70.1317 31.384 70.6477 31.244 71.2157 31.244ZM73.4117 34.676C73.4117 34.268 73.3317 33.92 73.1717 33.632C73.0117 33.336 72.7957 33.112 72.5237 32.96C72.2517 32.8 71.9597 32.72 71.6477 32.72C71.3357 32.72 71.0477 32.796 70.7837 32.948C70.5197 33.1 70.3037 33.324 70.1357 33.62C69.9757 33.908 69.8957 34.252 69.8957 34.652C69.8957 35.052 69.9757 35.404 70.1357 35.708C70.3037 36.004 70.5197 36.232 70.7837 36.392C71.0557 36.552 71.3437 36.632 71.6477 36.632C71.9597 36.632 72.2517 36.556 72.5237 36.404C72.7957 36.244 73.0117 36.02 73.1717 35.732C73.3317 35.436 73.4117 35.084 73.4117 34.676ZM78.4245 29.12V38H76.7445V29.12H78.4245ZM86.2643 34.532C86.2643 34.772 86.2483 34.988 86.2163 35.18H81.3563C81.3963 35.66 81.5643 36.036 81.8603 36.308C82.1563 36.58 82.5203 36.716 82.9523 36.716C83.5763 36.716 84.0203 36.448 84.2843 35.912H86.0963C85.9043 36.552 85.5363 37.08 84.9923 37.496C84.4483 37.904 83.7803 38.108 82.9883 38.108C82.3483 38.108 81.7723 37.968 81.2603 37.688C80.7563 37.4 80.3603 36.996 80.0723 36.476C79.7923 35.956 79.6523 35.356 79.6523 34.676C79.6523 33.988 79.7923 33.384 80.0723 32.864C80.3523 32.344 80.7443 31.944 81.2483 31.664C81.7523 31.384 82.3323 31.244 82.9883 31.244C83.6203 31.244 84.1843 31.38 84.6803 31.652C85.1843 31.924 85.5723 32.312 85.8443 32.816C86.1243 33.312 86.2643 33.884 86.2643 34.532ZM84.5243 34.052C84.5163 33.62 84.3603 33.276 84.0563 33.02C83.7523 32.756 83.3803 32.624 82.9403 32.624C82.5243 32.624 82.1723 32.752 81.8843 33.008C81.6043 33.256 81.4323 33.604 81.3683 34.052H84.5243ZM96.458 32.216C96.458 32.664 96.35 33.084 96.134 33.476C95.926 33.868 95.594 34.184 95.138 34.424C94.69 34.664 94.122 34.784 93.434 34.784H92.03V38H90.35V29.624H93.434C94.082 29.624 94.634 29.736 95.09 29.96C95.546 30.184 95.886 30.492 96.11 30.884C96.342 31.276 96.458 31.72 96.458 32.216ZM93.362 33.428C93.826 33.428 94.17 33.324 94.394 33.116C94.618 32.9 94.73 32.6 94.73 32.216C94.73 31.4 94.274 30.992 93.362 30.992H92.03V33.428H93.362ZM99.3308 29.12V38H97.6508V29.12H99.3308ZM100.559 34.652C100.559 33.98 100.691 33.384 100.955 32.864C101.227 32.344 101.591 31.944 102.047 31.664C102.511 31.384 103.027 31.244 103.595 31.244C104.091 31.244 104.523 31.344 104.891 31.544C105.267 31.744 105.567 31.996 105.791 32.3V31.352H107.483V38H105.791V37.028C105.575 37.34 105.275 37.6 104.891 37.808C104.515 38.008 104.079 38.108 103.583 38.108C103.023 38.108 102.511 37.964 102.047 37.676C101.591 37.388 101.227 36.984 100.955 36.464C100.691 35.936 100.559 35.332 100.559 34.652ZM105.791 34.676C105.791 34.268 105.711 33.92 105.551 33.632C105.391 33.336 105.175 33.112 104.903 32.96C104.631 32.8 104.339 32.72 104.027 32.72C103.715 32.72 103.427 32.796 103.163 32.948C102.899 33.1 102.683 33.324 102.515 33.62C102.355 33.908 102.275 34.252 102.275 34.652C102.275 35.052 102.355 35.404 102.515 35.708C102.683 36.004 102.899 36.232 103.163 36.392C103.435 36.552 103.723 36.632 104.027 36.632C104.339 36.632 104.631 36.556 104.903 36.404C105.175 36.244 105.391 36.02 105.551 35.732C105.711 35.436 105.791 35.084 105.791 34.676ZM115.483 31.352L111.367 41.144H109.579L111.019 37.832L108.355 31.352H110.239L111.955 35.996L113.695 31.352H115.483Z" fill="white"/>
</svg>
